<svg width="24" height="24" viewBox="0 0 24 24" fill="none" xmlns="http://www.w3.org/2000/svg">
<mask id="path-1-inside-1_1434_811" fill="white">
<path d="M12 18.75C11.59 18.75 11.25 18.41 11.25 18V15C11.25 14.59 11.59 14.25 12 14.25C12.41 14.25 12.75 14.59 12.75 15V18C12.75 18.41 12.41 18.75 12 18.75Z"/>
</mask>
<path d="M12 17.25C12.4184 17.25 12.75 17.5816 12.75 18H9.75C9.75 19.2384 10.7616 20.25 12 20.25V17.25ZM12.75 18V15H9.75V18H12.75ZM12.75 15C12.75 15.4184 12.4184 15.75 12 15.75V12.75C10.7616 12.75 9.75 13.7616 9.75 15H12.75ZM12 15.75C11.5816 15.75 11.25 15.4184 11.25 15H14.25C14.25 13.7616 13.2384 12.75 12 12.75V15.75ZM11.25 15V18H14.25V15H11.25ZM11.25 18C11.25 17.5816 11.5816 17.25 12 17.25V20.25C13.2384 20.25 14.25 19.2384 14.25 18H11.25Z" fill="black" mask="url(#path-1-inside-1_1434_811)"/>
<path d="M17.6009 22.5603H6.40094C4.58094 22.5603 2.92094 21.1603 2.62094 19.3703L1.29094 11.4003C1.07094 10.1603 1.68094 8.57031 2.67094 7.78031L9.60094 2.23031C10.9409 1.15031 13.0509 1.16031 14.4009 2.24031L21.3309 7.78031C22.3109 8.57031 22.9109 10.1603 22.7109 11.4003L21.3809 19.3603C21.0809 21.1303 19.3809 22.5603 17.6009 22.5603ZM11.9909 2.93031C11.4609 2.93031 10.9309 3.09031 10.5409 3.40031L3.61094 8.96031C3.05094 9.41031 2.65094 10.4503 2.77094 11.1603L4.10094 19.1203C4.28094 20.1703 5.33094 21.0603 6.40094 21.0603H17.6009C18.6709 21.0603 19.7209 20.1703 19.9009 19.1103L21.2309 11.1503C21.3409 10.4503 20.9409 9.39031 20.3909 8.95031L13.4609 3.41031C13.0609 3.09031 12.5209 2.93031 11.9909 2.93031Z" fill="black"/>
</svg>
