<svg width="110" height="89" viewBox="0 0 110 89" fill="none" xmlns="http://www.w3.org/2000/svg">
<mask id="mask0_899_7916" style="mask-type:luminance" maskUnits="userSpaceOnUse" x="0" y="0" width="110" height="89">
<path d="M54.9999 17.653C72.3799 -11.9862 110 -0.347733 110 23.5277C110 46.9819 88.7845 69.106 54.9999 88.2595C21.2152 69.106 0 46.9597 0 23.5277C0 -0.347733 37.6198 -11.9862 54.9999 17.653Z" fill="white"/>
</mask>
<g mask="url(#mask0_899_7916)">
<path d="M110 -11.9864H0V88.2592H110V-11.9864Z" fill="#AA6BE9"/>
</g>
<mask id="mask1_899_7916" style="mask-type:luminance" maskUnits="userSpaceOnUse" x="39" y="0" width="71" height="89">
<path d="M85.5471 0.0733587C84.9707 0.0290218 84.3943 0.00685273 83.8179 0.00685273C84.3721 0.0511896 84.9485 0.0733587 85.5471 0.0733587ZM39.7028 78.7713C44.4468 82.0079 49.5677 85.1558 54.999 88.2594C88.7837 69.1058 109.999 46.9817 109.999 23.5276C109.999 12.3547 101.752 3.86416 91.2 1.0266C109.533 7.94315 96.3209 51.7036 39.7028 78.7713Z" fill="white"/>
</mask>
<g mask="url(#mask1_899_7916)">
<path d="M109.999 0.00685273H39.7028V88.2594H109.999V0.00685273Z" fill="#AA6BE9"/>
</g>
<mask id="mask2_899_7916" style="mask-type:luminance" maskUnits="userSpaceOnUse" x="0" y="0" width="71" height="89">
<path d="M24.4518 0.0733587C25.0282 0.0290218 25.6045 0.00685273 26.1809 0.00685273C25.6267 0.0511896 25.0503 0.0733587 24.4518 0.0733587ZM70.2961 78.7713C65.552 82.0079 60.4311 85.1558 54.9999 88.2594C21.2152 69.1058 0 46.9596 0 23.5276C0 12.3547 8.24666 3.86416 18.7988 1.0266C0.465538 7.94315 13.6779 51.7036 70.2961 78.7713Z" fill="white"/>
</mask>
<g mask="url(#mask2_899_7916)">
<path d="M70.2961 0.00685273H0V88.2594H70.2961V0.00685273Z" fill="#AA6BE9"/>
</g>
<path fill-rule="evenodd" clip-rule="evenodd" d="M37.4652 19.3825C30.7482 23.7718 26.3145 31.3312 26.3145 39.9548C26.3145 46.7383 29.0634 52.8568 33.4971 57.3126L26.3145 64.4952H50.7884H50.8328C53.6703 64.4952 56.397 64.0075 58.9242 63.1208C43.9827 63.0099 31.8788 50.8616 31.8788 35.8758C31.9009 29.6908 33.9848 23.9713 37.4652 19.3825Z" fill="white"/>
<mask id="mask3_899_7916" style="mask-type:luminance" maskUnits="userSpaceOnUse" x="34" y="11" width="50" height="50">
<path d="M59.1448 11.3354C72.6897 11.3354 83.6852 22.3309 83.6852 35.8758C83.6852 42.6594 80.9363 48.7779 76.5027 53.2337L83.6852 60.4163H59.1891H59.1448C45.5999 60.4163 34.6043 49.4207 34.6043 35.8758C34.6043 22.3309 45.5999 11.3354 59.1448 11.3354Z" fill="white"/>
</mask>
<g mask="url(#mask3_899_7916)">
<path d="M83.6852 11.3354H34.6043V60.4163H83.6852V11.3354Z" fill="white"/>
</g>
<mask id="mask4_899_7916" style="mask-type:luminance" maskUnits="userSpaceOnUse" x="42" y="31" width="34" height="9">
<path d="M71.7812 31.8632C73.998 31.8632 75.7937 33.6589 75.7937 35.8757C75.7937 38.0926 73.998 39.8882 71.7812 39.8882C69.5644 39.8882 67.7687 38.0926 67.7687 35.8757C67.7465 33.6589 69.5422 31.8632 71.7812 31.8632ZM46.5092 31.8632C48.726 31.8632 50.5217 33.6589 50.5217 35.8757C50.5217 38.0926 48.726 39.8882 46.5092 39.8882C44.2924 39.8882 42.4967 38.0926 42.4967 35.8757C42.4967 33.6589 44.2924 31.8632 46.5092 31.8632ZM59.1452 31.8632C61.362 31.8632 63.1577 33.6589 63.1577 35.8757C63.1577 38.0926 61.362 39.8882 59.1452 39.8882C56.9284 39.8882 55.1327 38.0926 55.1327 35.8757C55.1105 33.6589 56.9284 31.8632 59.1452 31.8632Z" fill="white"/>
</mask>
<g mask="url(#mask4_899_7916)">
<path d="M75.7937 31.8632H42.4967V39.9104H75.7937V31.8632Z" fill="#AA6BE9"/>
</g>
</svg>
