<svg width="20" height="20" viewBox="0 0 20 20" fill="none" xmlns="http://www.w3.org/2000/svg">
<path d="M11.666 4.16667C11.666 3.25 10.916 2.5 9.99935 2.5C9.08268 2.5 8.33268 3.25 8.33268 4.16667C8.33268 5.08333 9.08268 5.83333 9.99935 5.83333C10.916 5.83333 11.666 5.08333 11.666 4.16667Z" fill="black"/>
<path d="M11.666 15.8334C11.666 14.9167 10.916 14.1667 9.99935 14.1667C9.08268 14.1667 8.33268 14.9167 8.33268 15.8334C8.33268 16.75 9.08268 17.5 9.99935 17.5C10.916 17.5 11.666 16.75 11.666 15.8334Z" fill="black"/>
<path d="M11.666 9.99998C11.666 9.08331 10.916 8.33331 9.99935 8.33331C9.08268 8.33331 8.33268 9.08331 8.33268 9.99998C8.33268 10.9166 9.08268 11.6666 9.99935 11.6666C10.916 11.6666 11.666 10.9166 11.666 9.99998Z" fill="black"/>
</svg>
