<svg width="26" height="26" viewBox="0 0 26 26" fill="none" xmlns="http://www.w3.org/2000/svg">
<path d="M17.3327 6.82501V6.50001C17.3327 4.10584 15.3935 2.16667 12.9993 2.16667C10.6052 2.16667 8.66602 4.10584 8.66602 6.50001V11.9167" stroke="black" stroke-width="1.5" stroke-linecap="round" stroke-linejoin="round"/>
<path d="M9.79297 15.3725C10.5838 16.25 11.7321 16.7917 12.9996 16.7917C15.3938 16.7917 17.333 14.8525 17.333 12.4583V11.9167" stroke="black" stroke-width="1.5" stroke-linecap="round" stroke-linejoin="round"/>
<path d="M7.3457 18.3625C8.82987 19.7383 10.8124 20.5833 13.0007 20.5833C17.5724 20.5833 21.2882 16.8675 21.2882 12.2958V10.4542" stroke="black" stroke-width="1.5" stroke-linecap="round" stroke-linejoin="round"/>
<path d="M4.71289 10.4542V12.2958C4.71289 13.4442 4.94039 14.5275 5.36289 15.5242" stroke="black" stroke-width="1.5" stroke-linecap="round" stroke-linejoin="round"/>
<path d="M21.7428 3.07666L4.25781 20.5725" stroke="black" stroke-width="1.5" stroke-linecap="round" stroke-linejoin="round"/>
<path d="M11.916 3.25V6.5" stroke="black" stroke-width="1.5" stroke-linecap="round" stroke-linejoin="round"/>
<path d="M13 20.5833V23.8333" stroke="black" stroke-width="1.5" stroke-linecap="round" stroke-linejoin="round"/>
</svg>
