<svg width="29" height="29" viewBox="0 0 29 29" fill="none" xmlns="http://www.w3.org/2000/svg">
<path d="M14.0619 6.7428L14.4668 7.28528L14.8717 6.7428C15.9986 5.23305 17.8044 4.25127 19.8192 4.25127C23.2376 4.25127 26.0166 7.04239 26.0166 10.5006C26.0166 11.8837 25.7964 13.1605 25.4141 14.3449L25.4131 14.3482C24.4968 17.2547 22.6204 19.5937 20.6 21.3341C18.5774 23.0764 16.4394 24.1938 15.0511 24.6673L15.0511 24.6673L15.0457 24.6692C14.9118 24.7166 14.7018 24.749 14.4668 24.749C14.2318 24.749 14.0218 24.7166 13.8879 24.6692L13.8879 24.6691L13.8825 24.6673C12.4942 24.1938 10.3562 23.0764 8.33359 21.3341C6.31326 19.5937 4.43686 17.2547 3.52055 14.3482L3.52056 14.3482L3.51951 14.3449C3.13721 13.1605 2.91707 11.8837 2.91707 10.5006C2.91707 7.04239 5.69603 4.25127 9.11439 4.25127C11.1292 4.25127 12.935 5.23305 14.0619 6.7428Z" fill="#E75096" stroke="#E75096"/>
</svg>
