<svg width="32" height="32" viewBox="0 0 32 32" fill="none" xmlns="http://www.w3.org/2000/svg">
<path d="M3.43909 25.3465L3.41242 25.3732C3.05242 24.5865 2.82576 23.6932 2.73242 22.7065C2.82576 23.6799 3.07909 24.5599 3.43909 25.3465Z" fill="#BDBDBD"/>
<path d="M11.9995 13.8398C13.7521 13.8398 15.1728 12.4191 15.1728 10.6665C15.1728 8.91391 13.7521 7.49316 11.9995 7.49316C10.2469 7.49316 8.82617 8.91391 8.82617 10.6665C8.82617 12.4191 10.2469 13.8398 11.9995 13.8398Z" fill="#BDBDBD"/>
<path d="M21.586 2.6665H10.4127C5.55935 2.6665 2.66602 5.55984 2.66602 10.4132V21.5865C2.66602 23.0398 2.91935 24.3065 3.41268 25.3732C4.55935 27.9065 7.01268 29.3332 10.4127 29.3332H21.586C26.4394 29.3332 29.3327 26.4398 29.3327 21.5865V18.5332V10.4132C29.3327 5.55984 26.4394 2.6665 21.586 2.6665ZM27.1594 16.6665C26.1194 15.7732 24.4393 15.7732 23.3993 16.6665L17.8527 21.4265C16.8127 22.3198 15.1327 22.3198 14.0927 21.4265L13.6393 21.0532C12.6927 20.2265 11.186 20.1465 10.1193 20.8665L5.13268 24.2132C4.83935 23.4665 4.66602 22.5998 4.66602 21.5865V10.4132C4.66602 6.65317 6.65268 4.6665 10.4127 4.6665H21.586C25.346 4.6665 27.3327 6.65317 27.3327 10.4132V16.8132L27.1594 16.6665Z" fill="#BDBDBD"/>
</svg>
