<svg width="157" height="154" viewBox="0 0 157 154" fill="none" xmlns="http://www.w3.org/2000/svg">
<ellipse opacity="0.35" cx="78.1159" cy="77" rx="78.1159" ry="77" fill="#F7F0FD"/>
<ellipse cx="78.1137" cy="77" rx="60.8695" ry="60" fill="#F7F0FD"/>
<path d="M77.5957 43.6666C62.8681 43.6666 50.929 55.6057 50.929 70.3333V83.6666L48.929 85.1666C48.0897 85.7963 47.5957 86.784 47.5957 87.8333V97C47.5957 98.841 49.0881 100.333 50.929 100.333H104.262C106.103 100.333 107.596 98.841 107.596 97V87.8333C107.596 86.784 107.102 85.7963 106.262 85.1666L104.262 83.6666V70.3333C104.262 55.6057 92.3234 43.6666 77.5957 43.6666Z" fill="#AA6BE9"/>
<path d="M87.026 103.667H68.1641C69.5368 107.551 73.241 110.333 77.595 110.333C81.949 110.333 85.6534 107.551 87.026 103.667Z" fill="#AA6BE9"/>
</svg>
