<svg width="157" height="154" viewBox="0 0 157 154" fill="none" xmlns="http://www.w3.org/2000/svg">
<ellipse opacity="0.35" cx="78.1159" cy="77" rx="78.1159" ry="77" fill="#F7F0FD"/>
<ellipse cx="78.1137" cy="77" rx="60.8695" ry="60" fill="#F7F0FD"/>
<path d="M66.3331 51.5801C70.4448 53.162 74.3581 56.0947 77.5951 58.6191C80.8321 56.0947 84.7454 53.162 88.8571 51.5801C91.4574 50.5797 94.3341 50.0282 97.3501 50.5077C100.4 50.9926 103.297 52.4855 105.979 55.0831C112.355 61.2576 112.605 71.2416 106.531 77.7116C106.484 77.7626 106.434 77.812 106.383 77.8596L79.8774 102.763C78.5947 103.968 76.5957 103.968 75.3127 102.763L48.8067 77.8596C48.7559 77.812 48.7065 77.7626 48.6588 77.7116C42.5853 71.2416 42.8356 61.2576 49.2113 55.0831C51.8935 52.4855 54.79 50.9926 57.84 50.5077C60.856 50.0282 63.7328 50.5797 66.3331 51.5801Z" fill="#AA6BE9"/>
</svg>
