<svg width="26" height="26" viewBox="0 0 26 26" fill="none" xmlns="http://www.w3.org/2000/svg">
<path d="M9.20768 20.5833H8.66602C4.33268 20.5833 2.16602 19.5 2.16602 14.0833V8.66667C2.16602 4.33334 4.33268 2.16667 8.66602 2.16667H17.3327C21.666 2.16667 23.8327 4.33334 23.8327 8.66667V14.0833C23.8327 18.4167 21.666 20.5833 17.3327 20.5833H16.791C16.4552 20.5833 16.1302 20.7458 15.9243 21.0167L14.2993 23.1833C13.5843 24.1367 12.4143 24.1367 11.6993 23.1833L10.0743 21.0167C9.90102 20.7783 9.50018 20.5833 9.20768 20.5833Z" stroke="black" stroke-width="1.5" stroke-miterlimit="10" stroke-linecap="round" stroke-linejoin="round"/>
<path d="M17.3287 11.9167H17.3384" stroke="black" stroke-width="2" stroke-linecap="round" stroke-linejoin="round"/>
<path d="M12.9947 11.9167H13.0044" stroke="black" stroke-width="2" stroke-linecap="round" stroke-linejoin="round"/>
<path d="M8.66072 11.9167H8.67045" stroke="black" stroke-width="2" stroke-linecap="round" stroke-linejoin="round"/>
</svg>
