<svg width="90" height="100" viewBox="0 0 90 100" fill="none" xmlns="http://www.w3.org/2000/svg">
<path d="M89.8814 99.9998C90.2967 88.7724 83.2258 84.4542 83.2258 84.4542L53.4349 67.6131H36.463L6.67319 84.454C6.67319 84.454 -0.397784 88.7722 0.0176109 99.9996H89.8814V99.9998Z" fill="#F9C5B8"/>
<path d="M34.3434 69.7916H55.5539C50.8545 67.2538 52.1207 57.498 52.1207 57.498H37.7764C37.7766 57.498 39.0431 67.2538 34.3434 69.7916Z" fill="#F9C5B8"/>
<path d="M37.484 64.8324C42.5514 64.2536 47.5115 62.555 51.9695 60.0439C51.9869 58.5464 52.122 57.498 52.122 57.498H37.7777C37.7779 57.4978 38.2756 61.3421 37.484 64.8324Z" fill="#F5A997"/>
<path d="M69.6891 35.7633C69.2426 39.2139 67.29 41.7764 65.3279 41.4865C63.3655 41.1963 62.137 38.1638 62.583 34.7127C63.0295 31.2619 64.9821 28.6994 66.9445 28.9894C68.9072 29.2798 70.1353 32.3123 69.6891 35.7633Z" fill="#F5A997"/>
<path d="M65.2999 38.9244C65.0337 38.9244 64.7916 38.7436 64.7253 38.4737C64.2362 36.4935 64.014 34.1469 66.0738 31.7575C66.2876 31.5095 66.6613 31.4823 66.9094 31.6955C67.1572 31.9092 67.185 32.2834 66.9714 32.5312C65.183 34.6055 65.4681 36.5396 65.8755 38.1899C65.954 38.5074 65.7602 38.8285 65.4425 38.907C65.3944 38.9184 65.3468 38.9244 65.2999 38.9244Z" fill="#E9837B"/>
<path d="M67.2913 35.4853C67.2547 35.4853 67.2177 35.4818 67.1804 35.4747C66.2297 35.2946 65.2505 35.4734 65.2401 35.475C64.918 35.5343 64.6091 35.3233 64.5487 35.0022C64.4885 34.6812 64.6989 34.3716 65.0201 34.3108C65.0684 34.3015 66.2244 34.0868 67.4013 34.3108C67.7228 34.3716 67.934 34.6819 67.873 35.0033C67.8187 35.2873 67.5702 35.4853 67.2913 35.4853Z" fill="#E9837B"/>
<path d="M20.2085 35.7633C20.655 39.2139 22.6076 41.7764 24.57 41.4865C26.5321 41.1963 27.7608 38.1638 27.3146 34.7127C26.8681 31.2619 24.9155 28.6994 22.9531 28.9894C20.9908 29.2798 19.7623 32.3123 20.2085 35.7633Z" fill="#F5A997"/>
<path d="M24.598 38.9243C24.5508 38.9243 24.5032 38.9188 24.4555 38.9066C24.1378 38.8284 23.944 38.5071 24.0225 38.1896C24.43 36.5395 24.715 34.6052 22.9267 32.5309C22.713 32.283 22.7408 31.9091 22.9886 31.6952C23.2358 31.4818 23.6102 31.5089 23.8243 31.7572C25.8841 34.1466 25.6616 36.4932 25.1728 38.4734C25.106 38.7435 24.8641 38.9243 24.598 38.9243Z" fill="#E9837B"/>
<path d="M22.6073 35.485C22.3282 35.485 22.0799 35.2871 22.0259 35.0028C21.9649 34.6814 22.1761 34.3714 22.4975 34.3103C23.6754 34.0863 24.8305 34.301 24.879 34.3103C25.2005 34.3714 25.4117 34.6816 25.3504 35.0028C25.2893 35.3239 24.98 35.534 24.6585 35.4745C24.6424 35.4714 23.6661 35.295 22.7185 35.4742C22.681 35.4815 22.6439 35.485 22.6073 35.485Z" fill="#E9837B"/>
<path d="M64.824 27.495C64.4723 17.6504 58.4301 5.48859 46.0413 5.5554H44.7755H43.5094C31.1203 5.48859 25.0786 17.6501 24.7267 27.495C24.373 37.3898 27.4069 48.8017 33.5693 54.8707C36.4585 57.7157 40.8416 59.084 44.7757 59.1523C48.7094 59.0838 53.0924 57.7157 55.9816 54.8707C62.144 48.8017 65.1776 37.39 64.824 27.495Z" fill="#F9C5B8"/>
<path d="M61.6845 29.3218C61.6845 29.3218 62.2101 33.8459 62.469 37.8947H63.9773C64.7012 33.8153 65.3198 29.1842 67.1422 29.0563C67.1422 29.0563 70.8904 3.6694 46.0113 3.6694V13.937C46.8859 14.0463 57.4778 17.1499 58.2846 17.4912C60.3314 18.3573 61.3425 27.2911 61.6845 29.3218Z" fill="#2A2E6D"/>
<path d="M27.19 37.8947C27.4412 33.846 27.8405 29.3218 27.8405 29.3218C28.1827 27.2911 29.1938 18.3573 31.2406 17.491C32.0471 17.1497 34.8261 15.2383 35.7008 15.1289C37.7209 8.29125 31.7766 6.30511 31.7766 6.30511C18.8085 12.3925 22.3828 29.0561 22.3828 29.0561C24.2053 29.184 24.8238 33.8151 25.5476 37.8945H27.19V37.8947Z" fill="#2A2E6D"/>
<path d="M53.4349 67.6131L83.2258 84.4542C83.2258 84.4542 90.2967 88.7724 89.8814 99.9998H0.0176109C-0.397784 88.7724 6.67319 84.4542 6.67319 84.4542L36.463 67.6131C36.463 67.6131 45.4573 73.1356 53.4349 67.6131Z" fill="#9CAAD8"/>
<path d="M53.4349 67.6131L83.2258 84.4542C83.2258 84.4542 90.2967 88.7724 89.8814 99.9998H0.0176109C-0.397784 88.7724 6.67319 84.4542 6.67319 84.4542L36.463 67.6131C36.463 67.6131 45.4573 73.1356 53.4349 67.6131Z" fill="#646DB2"/>
<path d="M86.1433 87.2579C84.6262 85.3172 83.2259 84.4542 83.2259 84.4542L53.435 67.6131C45.4574 73.1354 36.4631 67.6131 36.4631 67.6131L6.67329 84.4542C6.67329 84.4542 5.27298 85.3172 3.75582 87.2579H86.1433Z" fill="#7F6DAF"/>
<path d="M39.5566 27.5939C39.4981 28.1572 39.0534 28.5345 38.5626 28.4875C36.761 28.312 34.97 28.6088 33.3217 29.3567C32.8721 29.5595 32.3295 29.3461 32.0923 28.8317C31.8557 28.3186 32.0766 27.6629 32.6051 27.4232C34.496 26.5651 36.5503 26.2244 38.6164 26.4264C39.1939 26.4824 39.615 27.0319 39.5566 27.5939Z" fill="#2A2E6D"/>
<path d="M49.9932 27.5939C50.0516 28.1572 50.4965 28.5345 50.9871 28.4875C52.7887 28.312 54.5799 28.6088 56.2283 29.3567C56.6778 29.5595 57.2205 29.3461 57.4577 28.8317C57.6943 28.3186 57.4734 27.6629 56.9449 27.4232C55.054 26.5651 52.9997 26.2244 50.9335 26.4264C50.3561 26.4824 49.935 27.0319 49.9932 27.5939Z" fill="#2A2E6D"/>
<path d="M44.7758 50.218C42.3542 50.218 40.2631 49.4075 39.4486 48.1532C39.2707 47.8787 39.3485 47.5118 39.623 47.3336C39.8977 47.1559 40.2646 47.234 40.4426 47.508C40.9195 48.2427 42.479 49.0331 44.776 49.0331C47.0726 49.0331 48.6321 48.2427 49.1092 47.508C49.2873 47.234 49.6545 47.1557 49.9285 47.3338C50.2028 47.512 50.2809 47.8789 50.1027 48.1532C49.2878 49.4075 47.1969 50.218 44.7758 50.218Z" fill="#E9837B"/>
<path d="M44.5773 45.6819C44.5021 45.6819 44.4258 45.6676 44.3522 45.6371C43.0782 45.113 42.3845 44.5241 42.1696 43.7839C41.886 42.8074 42.508 41.9275 43.1664 40.9957C43.5787 40.4123 44.0051 39.8093 44.2121 39.178C44.3142 38.8673 44.6489 38.6987 44.96 38.8001C45.2707 38.9022 45.44 39.2371 45.3379 39.548C45.0751 40.3477 44.5753 41.0552 44.1341 41.6794C43.6451 42.3715 43.1831 43.0253 43.3075 43.4534C43.3785 43.6984 43.6958 44.086 44.8033 44.5415C45.1058 44.6661 45.25 45.0123 45.1256 45.3148C45.0312 45.5434 44.8103 45.6819 44.5773 45.6819Z" fill="#E9837B"/>
<path d="M36.8898 36.5678C37.7621 36.5678 38.4693 35.2358 38.4693 33.5926C38.4693 31.9494 37.7621 30.6174 36.8898 30.6174C36.0174 30.6174 35.3102 31.9494 35.3102 33.5926C35.3102 35.2358 36.0174 36.5678 36.8898 36.5678Z" fill="#2A2D6B"/>
<path d="M52.6611 36.5678C53.5335 36.5678 54.2407 35.2358 54.2407 33.5926C54.2407 31.9494 53.5335 30.6174 52.6611 30.6174C51.7887 30.6174 51.0815 31.9494 51.0815 33.5926C51.0815 35.2358 51.7887 36.5678 52.6611 36.5678Z" fill="#2A2D6B"/>
<path d="M67.3437 18.8067C51.2908 21.7025 47.0651 17.7371 47.0651 17.7371L49.9879 20.9668C36.5881 18.651 33.0683 11.9617 33.0683 11.9617C31.8554 10.3535 31.9969 6.30491 31.9969 6.30491C31.9969 6.30491 32.639 -1.465 49.9879 0.24619C49.9879 0.24641 64.8513 2.48412 67.3437 18.8067Z" fill="#2A2E6D"/>
<path d="M83.2256 84.4542L72.9876 78.6667V99.9998H89.8812C90.2963 88.7724 83.2256 84.4542 83.2256 84.4542Z" fill="#575F99"/>
<path d="M16.9108 78.6667L6.67319 84.4545C6.67319 84.4545 -0.397784 88.7727 0.0176109 100H16.9108V78.6667Z" fill="#575F99"/>
</svg>
