<svg width="50" height="16" viewBox="0 0 50 16" fill="none" xmlns="http://www.w3.org/2000/svg">
<path d="M5.27601 12.275L6.02769 8.87041L3.22347 8.82841L2.47179 12.233L1.25777 12.2148L2.0009 8.8101L0.000333254 8.78014L0.257806 7.56343L2.28402 7.59378L2.95386 4.51851L0.842146 4.48688L1.10804 3.27877L3.21975 3.3104L3.96112 0.0242963L5.17514 0.0424798L4.45942 3.32897L7.24654 3.37072L7.98791 0.0846093L9.21048 0.102921L8.47766 3.38916L10.6065 3.42104L10.3491 4.62927L8.20321 4.59713L7.51628 7.67215L9.74768 7.70557L9.49021 8.92228L7.25026 8.88873L6.49858 12.2933L5.27601 12.275ZM3.48057 7.63713L6.30188 7.67939L6.98944 4.562L4.16813 4.51974L3.48057 7.63713Z" fill="white"/>
<path d="M11.1395 8.99784L12.6869 9.02101C12.7512 9.68311 13.0683 10.219 13.638 10.6288C14.2134 11.0386 14.9428 11.2501 15.8263 11.2633C16.6584 11.2758 17.3481 11.0912 17.8953 10.7095C18.4484 10.3222 18.7293 9.82916 18.7382 9.23031C18.7458 8.71621 18.5612 8.28964 18.1842 7.9506C17.813 7.61164 17.2129 7.3286 16.3839 7.10145L14.8083 6.671C13.6727 6.3658 12.8465 5.95222 12.3297 5.43026C11.8131 4.90266 11.5609 4.22362 11.5732 3.39314C11.5883 2.37623 12.0052 1.55182 12.8241 0.919897C13.6487 0.288062 14.7022 -0.0182508 15.9847 0.000957185C17.2101 0.0193114 18.2197 0.362178 19.0137 1.02956C19.8077 1.69128 20.2142 2.53368 20.2333 3.55675L18.6944 3.5337C18.6357 2.87734 18.3584 2.35614 17.8624 1.97011C17.3665 1.58409 16.7167 1.38505 15.913 1.37302C15.1151 1.36106 14.4597 1.53772 13.9469 1.90299C13.4398 2.26835 13.1818 2.75045 13.1729 3.34929C13.1661 3.81255 13.3428 4.19662 13.7031 4.50151C14.0693 4.80083 14.6697 5.06411 15.5043 5.29134L16.7903 5.64964C18.0623 5.98514 18.9737 6.41977 19.5245 6.95354C20.0752 7.48731 20.3441 8.19203 20.3312 9.0677C20.3146 10.1863 19.8854 11.067 19.0435 11.7099C18.2074 12.3472 17.0798 12.6553 15.6606 12.634C14.3497 12.6144 13.2829 12.2735 12.4604 11.6113C11.6379 10.9492 11.1976 10.078 11.1395 8.99784Z" fill="white"/>
<path d="M26.2952 3.62212C27.4351 3.6392 28.3466 4.06818 29.0296 4.90907C29.7184 5.75004 30.0525 6.85977 30.0321 8.23825C30.0118 9.61107 29.6477 10.7103 28.94 11.5361C28.2323 12.3561 27.3171 12.7577 26.1942 12.7409C25.5673 12.7315 25.008 12.5819 24.5163 12.292C24.0246 12.0021 23.6485 11.6094 23.3879 11.1138L23.3537 11.1133L23.2888 15.486L21.8012 15.4638L21.9755 3.70999L23.3861 3.73112L23.364 5.22259L23.3982 5.2231C23.685 4.71883 24.0814 4.32356 24.5873 4.0373C25.0932 3.75104 25.6625 3.61265 26.2952 3.62212ZM25.8886 11.4395C26.6808 11.4514 27.3121 11.167 27.7825 10.5863C28.2529 10.0057 28.4955 9.21541 28.5103 8.21545C28.5251 7.21549 28.3061 6.41828 27.8531 5.82382C27.4001 5.22936 26.7775 4.92619 25.9853 4.91433C25.2215 4.90289 24.6015 5.19309 24.1253 5.78494C23.6491 6.37678 23.4037 7.16139 23.3892 8.13875C23.3746 9.12176 23.5966 9.91619 24.0551 10.522C24.5137 11.1222 25.1248 11.4281 25.8886 11.4395Z" fill="white"/>
<path d="M35.154 12.8751C33.9115 12.8565 32.9202 12.432 32.18 11.6015C31.4398 10.7654 31.0801 9.64968 31.1008 8.25425C31.1215 6.85883 31.5141 5.75716 32.2786 4.94925C33.0431 4.1357 34.0467 3.73822 35.2892 3.75683C36.526 3.77536 37.5145 4.20267 38.2546 5.03876C38.9948 5.86921 39.3546 6.98214 39.3339 8.37757C39.3133 9.76734 38.9207 10.869 38.1561 11.6826C37.3916 12.4961 36.3909 12.8936 35.154 12.8751ZM33.2795 10.6856C33.7441 11.269 34.3753 11.5666 35.1733 11.5786C35.9712 11.5905 36.6081 11.3147 37.0839 10.7511C37.5598 10.1818 37.8054 9.38311 37.8207 8.3549C37.8359 7.32669 37.6141 6.52379 37.1551 5.94619C36.6963 5.36294 36.0679 5.06534 35.27 5.05339C34.472 5.04144 33.8323 5.32005 33.3506 5.88921C32.8747 6.45846 32.6292 7.25436 32.614 8.27692C32.5989 9.29948 32.8207 10.1024 33.2795 10.6856Z" fill="white"/>
<path d="M40.7733 12.8067L40.9039 3.9935L42.306 4.0145L42.2847 5.45512L42.3189 5.45563C42.4744 4.96635 42.7451 4.58333 43.1312 4.30657C43.523 4.02425 43.9783 3.88698 44.497 3.89475C44.6166 3.89654 44.8158 3.9193 45.0945 3.96303L45.0733 5.39518C44.9146 5.33629 44.6499 5.30407 44.2795 5.29852C43.7038 5.2899 43.2393 5.47225 42.886 5.84555C42.5327 6.21886 42.3515 6.71624 42.3423 7.33768L42.2609 12.829L40.7733 12.8067Z" fill="white"/>
<path d="M46.8175 1.95457L48.3051 1.97685L48.2735 4.10388L50.0005 4.12975L49.9826 5.34157L48.2556 5.3157L48.1779 10.5528C48.172 10.9539 48.2559 11.2518 48.4298 11.4465C48.6037 11.6356 48.8816 11.733 49.2635 11.7387C49.5029 11.7423 49.7083 11.7313 49.8797 11.7056L49.8613 12.9428C49.6669 12.9851 49.3531 13.003 48.9199 12.9965C48.1048 12.9843 47.5262 12.7948 47.1838 12.4281C46.8415 12.0613 46.6767 11.4542 46.6892 10.6068L46.768 5.29342L45.4428 5.27357L45.4608 4.06175L46.7859 4.0816L46.8175 1.95457Z" fill="white"/>
</svg>
