<svg width="50" height="25" viewBox="0 0 50 25" fill="none" xmlns="http://www.w3.org/2000/svg">
<g clip-path="url(#clip0_675_1742)">
<path d="M0.241235 16.6914C0.241235 16.6914 5.07186 12.906 7.70482 12.2143C6.50915 11.9978 5.61166 11.6969 4.97576 11.2812C8.67038 6.85944 13.1667 3.5563 19.6813 4.46155C22.3472 4.83201 24.1231 6.28739 25.2636 7.75518C22.5388 9.66785 20.8819 12.4088 20.4011 15.7915C20.0255 18.4335 20.6452 21.2641 22.8702 21.5733C25.5562 21.9465 28.1042 17.9698 28.5078 15.1303C28.7675 13.3031 28.2611 10.5386 26.8662 8.12895C27.1749 7.97041 27.4635 7.80909 27.7487 7.67246C30.7946 6.23246 34.7305 5.72186 38.539 6.25109C41.6059 6.67725 45.7867 8.03876 48.3541 12.1221C48.5195 12.3968 48.8437 12.4167 49.0592 12.1949C49.2947 11.9758 49.3309 11.5779 49.162 11.3279C46.4162 6.91764 41.9618 5.46775 38.7145 5.01651C34.7657 4.46779 30.6424 5.0027 27.4255 6.49449C27.0096 6.68848 26.5901 6.90717 26.2108 7.13142C24.7927 5.17183 22.7031 3.62251 19.8568 3.22698C12.8611 2.25487 8.08213 5.82089 4.18153 10.5413C3.61832 9.75804 3.52168 8.71226 3.75129 7.38449C1.69644 10.624 0.241235 16.6914 0.241235 16.6914ZM26.0052 8.8654C27.3245 11.0882 27.6926 13.5314 27.4855 14.9882C27.1556 17.3092 25.0301 20.6145 23.0256 20.3359C20.8608 20.0351 21.3236 16.3477 21.3833 15.928C21.8957 12.323 23.8703 10.0795 25.906 8.70053C25.939 8.75549 25.9721 8.81044 26.0052 8.8654Z" fill="black"/>
</g>
<defs>
<clipPath id="clip0_675_1742">
<rect width="47.2249" height="18.3405" fill="white" transform="matrix(1.00342 0.139434 -0.142564 1.00298 2.61377 0)"/>
</clipPath>
</defs>
</svg>
