<svg width="45" height="26" viewBox="0 0 45 26" fill="none" xmlns="http://www.w3.org/2000/svg">
<path d="M0.350096 25.162C0.350096 25.162 3.57037 19.84 5.81485 18.2502C4.60634 18.465 3.64982 18.494 2.89989 18.321C4.81838 12.7917 7.8944 8.04859 14.3811 6.61566C17.0356 6.02926 19.235 6.79374 20.8376 7.79425C18.9418 10.5835 18.3517 13.7876 19.1034 17.1902C19.6905 19.8477 21.2864 22.3344 23.5019 21.845C26.1764 21.2542 27.1687 16.5547 26.5378 13.6984C26.1318 11.8605 24.6665 9.397 22.4872 7.58614C22.7227 7.32572 22.9383 7.06971 23.1594 6.83854C25.5277 4.38777 29.0695 2.51132 32.8617 1.67361C35.9154 0.999025 40.3567 0.82543 44.2424 3.82227C44.4969 4.02654 44.8107 3.93116 44.9355 3.64311C45.0802 3.35066 44.9725 2.95768 44.7235 2.77824C40.5524 -0.468138 35.8207 -0.282489 32.5874 0.431774C28.6554 1.30035 24.945 3.26615 22.4335 5.8267C22.1091 6.15884 21.7902 6.51582 21.5113 6.86397C19.4706 5.49136 16.9409 4.74774 14.1068 5.37383C7.14106 6.91258 3.89137 12.0066 1.88453 17.8941C1.07226 17.3442 0.607805 16.3788 0.35145 15.0288C-0.437238 18.8498 0.350096 25.162 0.350096 25.162ZM21.9353 8.59372C23.9764 10.2528 25.1962 12.4579 25.5199 13.9233C26.0356 16.2579 25.2035 20.1667 23.2076 20.6076C21.052 21.0838 20.1747 17.3964 20.0814 16.9741C19.2804 13.348 20.3484 10.5072 21.7826 8.47116C21.8335 8.51201 21.8844 8.55287 21.9353 8.59372Z" fill="black"/>
</svg>
