<svg width="48" height="14" viewBox="0 0 48 14" fill="none" xmlns="http://www.w3.org/2000/svg">
<path d="M5.56776 13.0929L6.38204 9.45961L3.413 9.401L2.59873 13.0343L1.31335 13.0089L2.11857 9.37545L0.000417865 9.33363L0.279604 8.03516L2.42491 8.07751L3.15075 4.79565L0.914922 4.75151L1.20298 3.46226L3.43881 3.5064L4.24153 -0.000330832L5.52691 0.025044L4.75134 3.53231L7.70227 3.59057L8.50499 0.0838349L9.79942 0.109388L9.00575 3.6163L11.2597 3.66079L10.9807 4.95022L8.70864 4.90536L7.9647 8.18687L10.3273 8.23351L10.0481 9.53198L7.67646 9.48517L6.86219 13.1184L5.56776 13.0929ZM3.69165 8.12968L6.67879 8.18865L7.42362 4.86189L4.43648 4.80292L3.69165 8.12968Z" fill="white"/>
<path d="M12.6055 0.164784L16.9957 0.251451C18.9328 0.289692 20.4331 0.895842 21.4966 2.0699C22.5602 3.23792 23.0717 4.84782 23.0312 6.89959C22.9906 8.9574 22.4158 10.5519 21.3068 11.6831C20.204 12.8083 18.681 13.3518 16.7379 13.3134L12.3477 13.2267L12.6055 0.164784ZM14.2059 1.66336L14.006 11.7925L16.6582 11.8448C18.1367 11.874 19.2828 11.462 20.0965 10.6087C20.9103 9.74944 21.3333 8.50813 21.3653 6.88482C21.3976 5.24943 21.0241 3.98637 20.2448 3.09562C19.4716 2.20499 18.3427 1.74503 16.8581 1.71572L14.2059 1.66336Z" fill="white"/>
<path d="M27.8135 12.3548C28.5558 12.3695 29.1819 12.1524 29.6918 11.7037C30.2079 11.249 30.4726 10.6838 30.4859 10.0079L30.5011 9.23848L27.9816 9.34269C27.3472 9.37242 26.8523 9.51659 26.4971 9.77521C26.1478 10.0339 25.9688 10.3866 25.96 10.8332C25.9512 11.2797 26.1161 11.6422 26.4547 11.9205C26.7933 12.1989 27.2463 12.3436 27.8135 12.3548ZM27.434 13.6876C26.4987 13.6691 25.7464 13.3947 25.1774 12.8642C24.6143 12.3339 24.3411 11.6464 24.3578 10.8015C24.3738 9.99288 24.6822 9.35301 25.2831 8.88192C25.8901 8.41094 26.7373 8.156 27.8247 8.1171L30.5252 8.01647L30.5408 7.22895C30.5521 6.65566 30.3799 6.20251 30.0243 5.86949C29.6686 5.53647 29.165 5.36353 28.5132 5.35066C27.9158 5.33887 27.4274 5.46204 27.048 5.72018C26.6687 5.97228 26.4231 6.33267 26.3113 6.80135L24.7905 6.77132C24.8614 5.93358 25.2371 5.25278 25.9175 4.72893C26.6041 4.19915 27.4905 3.94499 28.5768 3.96643C29.6811 3.98823 30.5506 4.2831 31.1854 4.85103C31.8262 5.41908 32.1373 6.17079 32.1189 7.10616L31.9904 13.6145L30.4968 13.585L30.5288 11.9647L30.4926 11.964C30.1984 12.4955 29.7734 12.9187 29.2179 13.2338C28.6623 13.5488 28.0677 13.7001 27.434 13.6876Z" fill="white"/>
<path d="M34.7285 1.97795L36.3035 2.00904L36.2586 4.28108L38.0871 4.31717L38.0616 5.6116L36.2331 5.57551L36.1227 11.1696C36.1142 11.5981 36.2015 11.9167 36.3845 12.1256C36.5676 12.3284 36.8614 12.4338 37.2657 12.4418C37.5192 12.4468 37.7367 12.436 37.9183 12.4094L37.8922 13.731C37.6861 13.7752 37.3537 13.7928 36.8951 13.7838C36.0321 13.7667 35.4204 13.5615 35.0599 13.168C34.6995 12.7745 34.5281 12.1252 34.546 11.22L34.6581 5.54441L33.255 5.51671L33.2806 4.22229L34.6836 4.24998L34.7285 1.97795Z" fill="white"/>
<path d="M43.2501 5.62348C42.5199 5.60906 41.9085 5.85054 41.4157 6.34792C40.9291 6.83938 40.6538 7.47991 40.5899 8.26949L45.7043 8.37045C45.7019 7.57352 45.4763 6.9201 45.0276 6.41017C44.5788 5.90024 43.9864 5.63801 43.2501 5.62348ZM45.6125 11.1849L47.1604 11.2154C47.0051 12.0455 46.5571 12.7218 45.8163 13.2445C45.0816 13.7673 44.2043 14.0186 43.1844 13.9985C41.8387 13.9719 40.7882 13.5165 40.0329 12.6323C39.2776 11.748 38.9146 10.5637 38.944 9.07915C38.973 7.60671 39.3826 6.42853 40.1728 5.54461C40.969 4.66082 42.0129 4.23167 43.3043 4.25717C44.5715 4.28219 45.5649 4.7274 46.2843 5.59282C47.0037 6.45824 47.3493 7.60605 47.3211 9.03625L47.3093 9.63368L40.5566 9.50037L40.5548 9.59089C40.5369 10.4961 40.77 11.2251 41.2542 11.778C41.7383 12.3309 42.4028 12.6157 43.2476 12.6324C43.839 12.644 44.3456 12.5182 44.7673 12.2549C45.1891 11.9915 45.4708 11.6349 45.6125 11.1849Z" fill="white"/>
</svg>
