<svg width="198" height="69" viewBox="0 0 198 69" fill="none" xmlns="http://www.w3.org/2000/svg">
<path d="M14.0885 35.0992L12.0529 31.8164L7.10686 32.909L6.64356 36.7438L5.01497 37.1036L6.85239 23.6568L8.38619 23.318L15.7171 34.7394L14.0885 35.0992ZM8.0103 25.3802L7.27231 31.4898L11.305 30.5989L8.062 25.3687L8.0103 25.3802Z" fill="black"/>
<path d="M16.9838 34.4596L14.237 22.0255L15.7364 21.6943L18.4831 34.1284L16.9838 34.4596Z" fill="black"/>
<path d="M22.3748 25.0718C21.6797 25.2254 21.1557 25.5942 20.8027 26.1782C20.4542 26.7553 20.3401 27.4252 20.4604 28.1878L25.3289 27.1124C25.1442 26.3579 24.7809 25.7905 24.2389 25.4101C23.697 25.0298 23.0757 24.917 22.3748 25.0718ZM25.8864 29.7998L27.3599 29.4743C27.4029 30.2963 27.1334 31.0396 26.5512 31.7045C25.9748 32.368 25.2012 32.807 24.2303 33.0215C22.9493 33.3045 21.8498 33.1136 20.9317 32.4488C20.0137 31.784 19.3986 30.745 19.0864 29.3318C18.7768 27.9302 18.8951 26.7201 19.4413 25.7018C19.9933 24.6821 20.8839 24.0365 22.1132 23.765C23.3196 23.4985 24.3627 23.6928 25.2424 24.348C26.1222 25.0031 26.7125 26.0115 27.0132 27.3729L27.1388 27.9416L20.7107 29.3616L20.7297 29.4478C20.9201 30.3095 21.3079 30.9468 21.8931 31.3598C22.4784 31.7727 23.1731 31.8904 23.9774 31.7127C24.5403 31.5883 24.9915 31.3531 25.3307 31.0071C25.67 30.661 25.8552 30.2586 25.8864 29.7998Z" fill="black"/>
<path d="M31.8006 27.6077L31.7662 27.6153L30.3571 31.5054L28.6941 31.8727L30.7546 26.7181L26.7661 22.8998L28.4378 22.5305L31.3344 25.4152L31.3688 25.4076L32.7548 21.5769L34.4265 21.2076L32.3785 26.2962L36.3631 30.1786L34.7 30.546L31.8006 27.6077Z" fill="black"/>
<path d="M46.2207 28.001L41.5246 29.0384L38.7778 16.6043L43.4912 15.5631C44.554 15.3283 45.4756 15.423 46.2561 15.847C47.0424 16.2698 47.5383 16.9465 47.7439 17.8771C47.8873 18.5263 47.8077 19.1614 47.505 19.7825C47.2069 20.3966 46.7712 20.8243 46.1979 21.0654L46.2131 21.1343C47.0817 21.0569 47.8267 21.2388 48.4483 21.6798C49.0757 22.1197 49.4807 22.7532 49.6635 23.5804C49.9058 24.6776 49.7215 25.616 49.1105 26.3957C48.5052 27.174 47.542 27.7091 46.2207 28.001ZM40.6315 17.6318L41.5128 21.6214L43.8394 21.1074C44.7585 20.9044 45.42 20.5715 45.8239 20.1087C46.2335 19.6447 46.364 19.0766 46.2156 18.4045C46.0798 17.7898 45.7718 17.3638 45.2916 17.1265C44.8101 16.8834 44.1931 16.845 43.4406 17.0112L40.6315 17.6318ZM42.7729 27.3257L45.6854 26.6823C46.6218 26.4755 47.29 26.1321 47.6901 25.6521C48.0901 25.1721 48.2108 24.5731 48.0522 23.855C47.7324 22.4073 46.573 21.9043 44.5739 22.346L41.8079 22.957L42.7729 27.3257Z" fill="black"/>
<path d="M54.6677 24.9602C55.3743 24.8041 55.9177 24.4551 56.2981 23.9132C56.6829 23.3643 56.8043 22.7681 56.6621 22.1247L56.5003 21.3923L54.1372 22.0679C53.5429 22.2414 53.1071 22.4913 52.8298 22.8177C52.5581 23.1428 52.4693 23.5179 52.5632 23.943C52.6571 24.3681 52.8963 24.6737 53.2809 24.8599C53.6654 25.046 54.1277 25.0795 54.6677 24.9602ZM54.6133 26.3097C53.7229 26.5064 52.9474 26.4187 52.2868 26.0465C51.6319 25.673 51.2157 25.0841 51.038 24.2799C50.868 23.5101 51.0137 22.8333 51.4751 22.2493C51.9423 21.6641 52.6866 21.2286 53.7079 20.9427L56.2434 20.229L56.0778 19.4793C55.9572 18.9336 55.6903 18.5437 55.2771 18.3096C54.8639 18.0756 54.3471 18.0271 53.7267 18.1641C53.158 18.2898 52.7235 18.5183 52.4232 18.8497C52.1216 19.1754 51.9714 19.5731 51.9728 20.0427L50.5251 20.3625C50.4004 19.5526 50.6004 18.8216 51.1251 18.1695C51.6543 17.5103 52.4359 17.0666 53.47 16.8381C54.5212 16.6059 55.4125 16.6862 56.144 17.0789C56.8811 17.4703 57.348 18.1112 57.5447 19.0017L58.9134 25.1972L57.4916 25.5112L57.1509 23.9688L57.1164 23.9764C56.9593 24.5473 56.6537 25.0456 56.1995 25.4713C55.7452 25.897 55.2165 26.1765 54.6133 26.3097Z" fill="black"/>
<path d="M66.9321 17.1087L65.4672 17.4323C65.2381 16.9407 64.8886 16.572 64.4186 16.3264C63.9544 16.0795 63.4092 16.0252 62.783 16.1635C62.0018 16.3361 61.4394 16.7767 61.0958 17.4852C60.751 18.1879 60.6902 19.0448 60.9136 20.0559C61.1407 21.0842 61.5581 21.8415 62.1656 22.3279C62.7788 22.8129 63.4789 22.9686 64.266 22.7947C64.8691 22.6615 65.333 22.4023 65.6577 22.0173C65.9868 21.6253 66.1571 21.1418 66.1687 20.5669L67.6422 20.2414C67.7253 21.1629 67.4821 21.9848 66.9126 22.7071C66.3476 23.4224 65.5596 23.8916 64.5486 24.115C63.2963 24.3916 62.2025 24.1995 61.2672 23.5385C60.3306 22.8718 59.7044 21.8232 59.3884 20.3928C59.0775 18.9854 59.2057 17.7792 59.7729 16.7743C60.3389 15.7636 61.2423 15.1212 62.4832 14.8471C63.5517 14.611 64.4857 14.721 65.2853 15.177C66.0907 15.6317 66.6396 16.2756 66.9321 17.1087Z" fill="black"/>
<path d="M70.1352 17.4946L73.2196 12.638L75.0377 12.2364L72.0062 16.9638L77.138 21.1713L75.3974 21.5558L71.15 18.12L70.4893 19.0974L71.2355 22.4752L69.7361 22.8064L66.9894 10.3723L68.4887 10.041L70.1352 17.4946Z" fill="black"/>
<path d="M79.6596 12.4174C78.9645 12.5709 78.4405 12.9397 78.0875 13.5238C77.739 14.1008 77.6249 14.7707 77.7452 15.5334L82.6137 14.4579C82.429 13.7034 82.0657 13.136 81.5237 12.7557C80.9818 12.3753 80.3605 12.2625 79.6596 12.4174ZM83.1713 17.1454L84.6447 16.8199C84.6877 17.6418 84.4182 18.3852 83.836 19.05C83.2596 19.7135 82.486 20.1525 81.5151 20.367C80.2341 20.65 79.1346 20.4591 78.2165 19.7943C77.2985 19.1295 76.6834 18.0905 76.3712 16.6774C76.0616 15.2757 76.1799 14.0657 76.7261 13.0473C77.2781 12.0277 78.1687 11.3821 79.398 11.1105C80.6044 10.844 81.6475 11.0384 82.5272 11.6935C83.407 12.3487 83.9973 13.357 84.298 14.7185L84.4236 15.2872L77.9955 16.7072L78.0145 16.7934C78.2049 17.655 78.5927 18.2924 79.1779 18.7053C79.7632 19.1183 80.4579 19.2359 81.2622 19.0582C81.8252 18.9339 82.2763 18.6987 82.6155 18.3526C82.9548 18.0065 83.14 17.6041 83.1713 17.1454Z" fill="black"/>
<path d="M86.8406 19.0279L84.8609 10.0664L86.2741 9.75423L86.5977 11.2191L86.6322 11.2115C86.6711 10.6787 86.8513 10.2262 87.1727 9.85394C87.4986 9.47468 87.923 9.22731 88.4457 9.11183C88.5664 9.08518 88.7719 9.06087 89.0622 9.0389L89.3839 10.4951C89.2104 10.4732 88.9369 10.5035 88.5635 10.586C87.9833 10.7142 87.5605 11.0094 87.2951 11.4717C87.0297 11.934 86.9668 12.4811 87.1064 13.113L88.3399 18.6967L86.8406 19.0279Z" fill="black"/>
<path d="M92.9964 20.2618L91.747 20.5378L91.6139 15.9672L93.2081 15.615L92.9964 20.2618Z" fill="black"/>
<path d="M96.6649 7.57634C96.4251 6.49061 96.6165 5.50243 97.2391 4.61177C97.8605 3.71537 98.7571 3.13773 99.929 2.87886C101.038 2.63394 102.05 2.75677 102.966 3.24735C103.881 3.73793 104.444 4.46002 104.655 5.41362C104.807 6.10297 104.764 6.80834 104.526 7.52974C104.288 8.25114 103.765 9.26731 102.958 10.5782L100.531 14.5216L100.538 14.556L106.596 13.2179L106.901 14.5966L98.6973 16.4087L98.4613 15.3402L101.82 9.76323C102.459 8.70031 102.863 7.91211 103.033 7.39865C103.209 6.88392 103.239 6.36804 103.125 5.85103C102.993 5.2536 102.639 4.7985 102.064 4.48574C101.495 4.17172 100.868 4.09021 100.185 4.24122C99.4552 4.40238 98.8977 4.76955 98.5122 5.34273C98.1267 5.9159 98.0107 6.55004 98.1642 7.24513L98.1661 7.25375L96.6668 7.58495L96.6649 7.57634Z" fill="black"/>
<path d="M113.013 13.4633C111.823 13.726 110.755 13.6095 109.808 13.1138C108.867 12.6168 108.248 11.8467 107.952 10.8037L109.477 10.4668C109.692 11.1122 110.101 11.5881 110.705 11.8945C111.308 12.1952 111.982 12.263 112.729 12.098C113.573 11.9115 114.202 11.4956 114.613 10.8504C115.031 10.2038 115.147 9.46123 114.962 8.62253C114.776 7.78382 114.358 7.15635 113.705 6.74013C113.058 6.31689 112.32 6.19663 111.493 6.37937C110.913 6.50754 110.414 6.74716 109.998 7.09823C109.581 7.44931 109.295 7.87106 109.139 8.36348L107.682 8.68517L106.825 1.57238L113.943 9.10223e-05L114.247 1.37879L108.405 2.66936L108.92 6.80303L108.955 6.79542C109.154 6.35984 109.474 5.98184 109.915 5.66143C110.362 5.33975 110.882 5.11355 111.474 4.98284C112.668 4.71889 113.738 4.8954 114.681 5.51236C115.629 6.1223 116.237 7.03046 116.503 8.23681C116.779 9.48338 116.59 10.5944 115.938 11.5699C115.286 12.5454 114.311 13.1765 113.013 13.4633Z" fill="black"/>
<path d="M32.2372 57.3747L31.0101 57.6458L28.8127 47.6985L30.0191 47.432L37.1903 54.0393L37.2523 54.0256L35.527 46.2153L36.754 45.9442L38.9514 55.8915L37.7451 56.158L30.58 49.5783L30.5179 49.592L32.2372 57.3747Z" fill="black"/>
<path d="M42.1889 48.6188C41.6328 48.7417 41.2136 49.0367 40.9312 49.504C40.6524 49.9656 40.5611 50.5015 40.6574 51.1117L44.5522 50.2513C44.4044 49.6477 44.1137 49.1938 43.6802 48.8895C43.2467 48.5852 42.7496 48.495 42.1889 48.6188ZM44.9982 52.4012L46.177 52.1408C46.2114 52.7984 45.9957 53.3931 45.53 53.9249C45.0689 54.4558 44.45 54.807 43.6733 54.9786C42.6485 55.2049 41.7688 55.0522 41.0344 54.5204C40.3 53.9886 39.8079 53.1574 39.5582 52.0269C39.3104 50.9055 39.4051 49.9375 39.8421 49.1228C40.2836 48.3071 40.9962 47.7906 41.9796 47.5733C42.9447 47.3602 43.7792 47.5156 44.483 48.0398C45.1868 48.5639 45.659 49.3705 45.8996 50.4597L46.0001 50.9147L40.8576 52.0507L40.8728 52.1196C41.0251 52.809 41.3353 53.3188 41.8035 53.6492C42.2717 53.9796 42.8275 54.0737 43.4709 53.9315C43.9213 53.8321 44.2822 53.6439 44.5536 53.367C44.825 53.0902 44.9732 52.7682 44.9982 52.4012Z" fill="black"/>
<path d="M55.47 44.7234L55.0546 52.3342L53.8345 52.6038L50.9886 47.4124L50.9611 47.4185L50.5738 53.3241L49.3537 53.5936L45.764 46.8675L46.9565 46.6041L49.6787 52.1192L49.7063 52.1131L50.0379 45.9234L51.196 45.6675L54.1112 51.14L54.1388 51.134L54.2843 44.9853L55.47 44.7234Z" fill="black"/>
<path d="M62.1199 53.5859C61.9085 53.6326 61.7332 53.6569 61.5938 53.6587L61.3715 52.6523C61.4868 52.6509 61.6456 52.6279 61.8478 52.5832C62.1833 52.5091 62.4324 52.3601 62.595 52.1362C62.7586 51.9169 62.8632 51.5829 62.9087 51.1342L62.9629 50.5945L58.7306 44.0031L60.0128 43.7199L63.3169 49.2511L63.3375 49.2465L64.0041 42.8382L65.2656 42.5595L64.1411 50.8548C64.0179 51.7592 63.8111 52.405 63.5207 52.7921C63.2348 53.1781 62.7679 53.4427 62.1199 53.5859Z" fill="black"/>
<path d="M70.5923 49.032C69.5905 49.2533 68.7126 49.0978 67.9588 48.5654C67.204 48.0285 66.7012 47.1924 66.4504 46.0573C66.1997 44.9222 66.304 43.9544 66.7634 43.1541C67.2218 42.3491 67.952 41.8359 68.9538 41.6146C69.9511 41.3943 70.8271 41.5527 71.582 42.0896C72.3358 42.622 72.8381 43.4557 73.0888 44.5909C73.3386 45.7214 73.2342 46.6891 72.7758 47.4941C72.3174 48.2991 71.5896 48.8117 70.5923 49.032ZM68.6668 47.6138C69.1518 47.9983 69.716 48.1194 70.3593 47.9773C71.0027 47.8352 71.4616 47.4904 71.7359 46.943C72.0092 46.391 72.0535 45.6968 71.8687 44.8604C71.6839 44.024 71.3518 43.4153 70.8725 43.0344C70.3921 42.6489 69.8302 42.5272 69.1868 42.6693C68.5434 42.8115 68.0828 43.159 67.8049 43.7121C67.5316 44.2641 67.4868 44.956 67.6706 45.7878C67.8543 46.6196 68.1864 47.2283 68.6668 47.6138Z" fill="black"/>
<path d="M75.0939 47.9075L73.5102 40.7382L74.6408 40.4885L74.8996 41.6604L74.9272 41.6543C74.9584 41.2281 75.1025 40.8661 75.3597 40.5683C75.6204 40.2649 75.9599 40.067 76.3781 39.9746C76.4746 39.9533 76.639 39.9338 76.8713 39.9162L77.1286 41.0812C76.9898 41.0637 76.771 41.0879 76.4723 41.1539C76.0082 41.2565 75.6699 41.4926 75.4576 41.8625C75.2453 42.2323 75.195 42.67 75.3066 43.1755L76.2934 47.6425L75.0939 47.9075Z" fill="black"/>
<path d="M79.8319 42.6819L82.2994 38.7967L83.7539 38.4754L81.3287 42.2573L85.4342 45.6233L84.0417 45.9309L80.6438 43.1822L80.1152 43.9641L80.7121 46.6664L79.5127 46.9313L77.3153 36.9841L78.5147 36.7191L79.8319 42.6819Z" fill="black"/>
<path d="M137.032 26.7996C136.84 25.9311 136.993 25.1405 137.492 24.428C137.989 23.7109 138.706 23.2487 139.643 23.0416C140.53 22.8457 141.34 22.944 142.073 23.3364C142.805 23.7289 143.256 24.3066 143.424 25.0695C143.546 25.6209 143.512 26.1852 143.321 26.7624C143.131 27.3395 142.712 28.1524 142.067 29.2012L140.125 32.3558L140.131 32.3834L144.977 31.3129L145.221 32.4158L138.658 33.8655L138.469 33.0107L141.157 28.5491C141.668 27.6988 141.991 27.0683 142.127 26.6575C142.267 26.2457 142.292 25.833 142.2 25.4194C142.095 24.9414 141.812 24.5774 141.352 24.3272C140.896 24.0759 140.395 24.0107 139.848 24.1315C139.264 24.2605 138.818 24.5542 138.51 25.0127C138.202 25.4713 138.109 25.9786 138.232 26.5347L138.233 26.5416L137.034 26.8065L137.032 26.7996Z" fill="#BDBDBD"/>
<path d="M149.522 31.4656L147.939 24.2964L149.069 24.0466L149.322 25.191L149.349 25.1849C149.438 24.7557 149.634 24.3894 149.938 24.086C150.241 23.7781 150.63 23.5718 151.103 23.4672C151.59 23.3596 152.035 23.3867 152.437 23.5486C152.838 23.7058 153.165 23.9854 153.417 24.3875L153.445 24.3814C153.548 23.9104 153.771 23.5117 154.113 23.1854C154.459 22.8535 154.885 22.6317 155.391 22.5201C156.098 22.3637 156.711 22.4525 157.228 22.7865C157.749 23.1149 158.088 23.6353 158.245 24.3476L159.339 29.2971L158.139 29.5621L157.107 24.8883C156.998 24.3966 156.783 24.0441 156.461 23.8308C156.143 23.6119 155.747 23.5548 155.274 23.6593C154.8 23.7639 154.447 24.0082 154.214 24.3923C153.979 24.7718 153.916 25.2052 154.024 25.6923L155.03 30.2489L153.831 30.5138L152.769 25.7091C152.674 25.2771 152.464 24.9619 152.141 24.7634C151.817 24.5603 151.432 24.508 150.986 24.6065C150.512 24.7111 150.156 24.9633 149.917 25.3632C149.682 25.7621 149.619 26.2098 149.729 26.7061L150.722 31.2006L149.522 31.4656Z" fill="#BDBDBD"/>
<path d="M160.931 28.9454L159.347 21.7761L160.547 21.5112L162.13 28.6804L160.931 28.9454ZM159.681 20.4373C159.478 20.482 159.287 20.447 159.108 20.3324C158.928 20.2179 158.816 20.0595 158.772 19.8573C158.726 19.6505 158.761 19.4596 158.876 19.2846C158.991 19.1051 159.149 18.993 159.352 18.9483C159.558 18.9026 159.752 18.9371 159.931 19.0516C160.11 19.1616 160.222 19.32 160.267 19.5268C160.312 19.729 160.277 19.9199 160.163 20.0995C160.048 20.279 159.887 20.3916 159.681 20.4373Z" fill="#BDBDBD"/>
<path d="M163.812 28.3088L161.615 18.3615L162.815 18.0966L165.012 28.0439L163.812 28.3088Z" fill="#BDBDBD"/>
<path d="M171.694 25.628C172.259 25.5031 172.694 25.2239 172.998 24.7904C173.306 24.3512 173.403 23.8743 173.289 23.3596L173.16 22.7736L171.269 23.3142C170.794 23.4529 170.445 23.6529 170.223 23.9139C170.006 24.174 169.935 24.4741 170.01 24.8142C170.085 25.1543 170.277 25.3988 170.584 25.5477C170.892 25.6966 171.262 25.7234 171.694 25.628ZM171.65 26.7076C170.938 26.8649 170.317 26.7947 169.789 26.497C169.265 26.1982 168.932 25.7271 168.79 25.0837C168.654 24.4679 168.77 23.9264 169.14 23.4593C169.513 22.9911 170.109 22.6427 170.926 22.414L172.954 21.843L172.822 21.2433C172.725 20.8067 172.512 20.4948 172.181 20.3075C171.851 20.1203 171.437 20.0815 170.941 20.1911C170.486 20.2916 170.138 20.4744 169.898 20.7396C169.657 21.0001 169.537 21.3183 169.538 21.694L168.38 21.9498C168.28 21.3019 168.44 20.7171 168.86 20.1954C169.283 19.6681 169.908 19.313 170.735 19.1303C171.576 18.9445 172.29 19.0087 172.875 19.3229C173.464 19.6361 173.838 20.1488 173.995 20.8611L175.09 25.8175L173.953 26.0688L173.68 24.8349L173.653 24.841C173.527 25.2977 173.282 25.6963 172.919 26.0369C172.556 26.3774 172.133 26.601 171.65 26.7076Z" fill="#BDBDBD"/>
<path d="M184.15 16.2971L183.735 23.9079L182.514 24.1775L179.669 18.9861L179.641 18.9922L179.254 24.8978L178.034 25.1673L174.444 18.4412L175.637 18.1778L178.359 23.6929L178.386 23.6868L178.718 17.4971L179.876 17.2412L182.791 22.7138L182.819 22.7077L182.964 16.559L184.15 16.2971Z" fill="#BDBDBD"/>
<path d="M188.748 21.8606C189.313 21.7357 189.748 21.4565 190.052 21.023C190.36 20.5838 190.457 20.1069 190.344 19.5922L190.214 19.0062L188.324 19.5468C187.848 19.6855 187.5 19.8854 187.278 20.1465C187.061 20.4066 186.989 20.7067 187.065 21.0468C187.14 21.3868 187.331 21.6314 187.639 21.7803C187.946 21.9292 188.316 21.956 188.748 21.8606ZM188.705 22.9402C187.992 23.0975 187.372 23.0273 186.843 22.7296C186.32 22.4308 185.987 21.9597 185.844 21.3163C185.708 20.7005 185.825 20.159 186.194 19.6919C186.568 19.2237 187.163 18.8753 187.98 18.6466L190.009 18.0756L189.876 17.4759C189.78 17.0393 189.566 16.7274 189.236 16.5401C188.905 16.3529 188.492 16.3141 187.995 16.4237C187.54 16.5242 187.193 16.707 186.953 16.9722C186.711 17.2327 186.591 17.5509 186.592 17.9266L185.434 18.1824C185.334 17.5345 185.494 16.9497 185.914 16.428C186.337 15.9007 186.963 15.5456 187.79 15.3629C188.631 15.1771 189.344 15.2413 189.929 15.5555C190.519 15.8686 190.892 16.3814 191.05 17.0937L192.145 22.0501L191.007 22.3014L190.735 21.0675L190.707 21.0735C190.581 21.5303 190.337 21.9289 189.974 22.2695C189.61 22.61 189.187 22.8336 188.705 22.9402Z" fill="#BDBDBD"/>
<path d="M194.853 24.2642C194.642 24.3109 194.467 24.3352 194.327 24.337L194.105 23.3306C194.22 23.3292 194.379 23.3062 194.581 23.2615C194.917 23.1874 195.166 23.0384 195.328 22.8145C195.492 22.5952 195.597 22.2612 195.642 21.8126L195.696 21.2728L191.464 14.6814L192.746 14.3982L196.05 19.9294L196.071 19.9248L196.738 13.5165L197.999 13.2378L196.874 21.5331C196.751 22.4375 196.545 23.0833 196.254 23.4704C195.968 23.8564 195.501 24.121 194.853 24.2642Z" fill="#BDBDBD"/>
<g clip-path="url(#clip0_668_1541)">
<path d="M9.94573 46.5384C7.96891 46.9778 6.24703 48.1832 5.15767 49.8904C4.06831 51.5975 3.70039 53.6669 4.13459 55.6449C5.31749 60.9997 13.7482 66.1714 14.1059 66.389C14.1757 66.4321 14.2595 66.4463 14.3396 66.4286C14.4197 66.4109 14.4897 66.3627 14.5348 66.2942C14.7676 65.9462 20.2352 57.7043 19.0523 52.3495C18.6128 50.3727 17.4074 48.6508 15.7003 47.5615C13.9932 46.4721 11.9237 46.1042 9.94573 46.5384ZM12.3486 57.4158C11.6725 57.5652 10.9672 57.5107 10.322 57.2593C9.67688 57.0078 9.12076 56.5707 8.72401 56.0032C8.32727 55.4356 8.10773 54.7632 8.09315 54.0709C8.07856 53.3787 8.26959 52.6976 8.64208 52.1139C9.01457 51.5301 9.55179 51.07 10.1858 50.7916C10.8198 50.5132 11.5221 50.429 12.204 50.5498C12.8858 50.6706 13.5165 50.9908 14.0163 51.47C14.5162 51.9492 14.8627 52.5659 15.0121 53.242C15.2118 54.1486 15.0434 55.0975 14.544 55.8801C14.0446 56.6627 13.255 57.215 12.3486 57.4158Z" fill="black"/>
</g>
<defs>
<clipPath id="clip0_668_1541">
<rect width="20.3171" height="20.3171" fill="white" transform="translate(0 48.7353) scale(1.00259) rotate(-12.4568)"/>
</clipPath>
</defs>
</svg>
