<svg width="20" height="20" viewBox="0 0 20 20" fill="none" xmlns="http://www.w3.org/2000/svg">
<path d="M5.63412 18.3333H14.3675C16.6675 18.3333 17.5841 16.925 17.6925 15.2083L18.1258 8.325C18.2425 6.525 16.8091 5 15.0008 5C14.4925 5 14.0258 4.70833 13.7925 4.25833L13.1925 3.05C12.8091 2.29167 11.8091 1.66667 10.9591 1.66667H9.05079C8.19246 1.66667 7.19246 2.29167 6.80912 3.05L6.20912 4.25833C5.97579 4.70833 5.50912 5 5.00079 5C3.19246 5 1.75912 6.525 1.87579 8.325L2.30912 15.2083C2.40912 16.925 3.33412 18.3333 5.63412 18.3333Z" stroke="black" stroke-width="1.4" stroke-linecap="round" stroke-linejoin="round"/>
<path d="M8.75 6.66667H11.25" stroke="black" stroke-width="1.4" stroke-linecap="round" stroke-linejoin="round"/>
<path d="M9.99935 15C11.491 15 12.7077 13.7833 12.7077 12.2917C12.7077 10.8 11.491 9.58333 9.99935 9.58333C8.50768 9.58333 7.29102 10.8 7.29102 12.2917C7.29102 13.7833 8.50768 15 9.99935 15Z" stroke="black" stroke-width="1.4" stroke-linecap="round" stroke-linejoin="round"/>
</svg>
