<svg width="142" height="40" viewBox="0 0 142 40" fill="none" xmlns="http://www.w3.org/2000/svg">
<path d="M13.6231 9.10851L12.9488 6.50381L9.38939 6.19763L8.26534 8.64764L7.09334 8.54683L11.1781 0.000162286L12.2819 0.0951099L14.7951 9.20933L13.6231 9.10851ZM11.5921 1.38621L9.80136 5.28962L12.7035 5.53926L11.6293 1.38941L11.5921 1.38621Z" fill="black"/>
<path d="M15.7066 9.28774L16.4924 0.457298L17.5714 0.550112L16.7856 9.38055L15.7066 9.28774Z" fill="black"/>
<path d="M21.3226 4.17795C20.8224 4.13492 20.3917 4.27053 20.0304 4.58477C19.6737 4.89529 19.455 5.31635 19.3744 5.84794L22.878 6.14932C22.9135 5.60973 22.7893 5.15712 22.5052 4.79148C22.2211 4.42585 21.8269 4.22133 21.3226 4.17795ZM22.6839 8.05035L23.7442 8.14156C23.5991 8.69638 23.2602 9.13381 22.7277 9.45388C22.1993 9.77429 21.5858 9.90445 20.8871 9.84436C19.9652 9.76505 19.2658 9.40891 18.7889 8.77592C18.3121 8.14293 18.1183 7.32464 18.2076 6.32104C18.2962 5.3256 18.6321 4.5467 19.2153 3.98435C19.8027 3.42235 20.5387 3.17941 21.4234 3.25551C22.2916 3.33018 22.9522 3.67683 23.4054 4.29545C23.8586 4.91407 24.0421 5.70681 23.9561 6.6737L23.9202 7.07758L19.2942 6.67966L19.2887 6.74085C19.2343 7.3528 19.3602 7.85694 19.6665 8.25327C19.9728 8.6496 20.4154 8.87266 20.9941 8.92244C21.3993 8.95729 21.7526 8.89519 22.0542 8.73615C22.3558 8.5771 22.5657 8.3485 22.6839 8.05035Z" fill="black"/>
<path d="M27.1276 7.82829L27.1028 7.82616L25.3307 10.1156L24.1339 10.0126L26.6122 7.01933L24.7374 3.65157L25.9404 3.75505L27.2783 6.27501L27.3031 6.27714L29.0471 4.02229L30.2501 4.12577L27.7942 7.07785L29.6528 10.4874L28.456 10.3844L27.1276 7.82829Z" fill="black"/>
<path d="M36.7468 11.0976L33.3673 10.8069L34.153 1.97646L37.545 2.26824C38.3098 2.33402 38.9099 2.58913 39.3452 3.03356C39.7847 3.47834 39.975 4.03118 39.9162 4.69209C39.8752 5.15309 39.6871 5.55828 39.3519 5.90765C39.0212 6.25329 38.6375 6.44638 38.2006 6.48691L38.1963 6.53587C38.7971 6.66566 39.2599 6.94184 39.5847 7.36443C39.9136 7.78737 40.052 8.29258 39.9997 8.88005C39.9304 9.65927 39.6076 10.244 39.0313 10.6343C38.4592 11.025 37.6977 11.1794 36.7468 11.0976ZM35.1826 3.04547L34.9305 5.8788L36.6048 6.02282C37.2662 6.07972 37.7819 5.99664 38.1516 5.77357C38.5255 5.55086 38.7337 5.20084 38.7762 4.72352C38.815 4.28699 38.698 3.93984 38.4252 3.68205C38.1527 3.42018 37.7457 3.26595 37.2042 3.21937L35.1826 3.04547ZM34.57 9.92991L36.666 10.1102C37.3398 10.1682 37.8622 10.0795 38.233 9.84419C38.6039 9.60888 38.812 9.23625 38.8574 8.72629C38.9489 7.69822 38.2753 7.1223 36.8366 6.99855L34.8461 6.82733L34.57 9.92991Z" fill="black"/>
<path d="M43.0745 10.8403C43.583 10.884 44.0226 10.7656 44.3933 10.4851C44.7685 10.2008 44.9765 9.83023 45.0171 9.37331L45.0634 8.85315L43.3302 8.8089C42.8936 8.80011 42.5474 8.87516 42.2917 9.03404C42.0401 9.19328 41.9008 9.42384 41.874 9.72574C41.8471 10.0276 41.9433 10.2805 42.1626 10.4844C42.382 10.6882 42.6859 10.8069 43.0745 10.8403ZM42.7521 11.7252C42.1113 11.6701 41.6081 11.45 41.2424 11.065C40.8809 10.6804 40.7256 10.2025 40.7764 9.63133C40.825 9.08465 41.0665 8.66555 41.5006 8.37403C41.9389 8.08286 42.532 7.94888 43.2797 7.9721L45.1369 8.02702L45.1843 7.49462C45.2188 7.10706 45.1218 6.79245 44.8934 6.55081C44.6649 6.30918 44.3275 6.16915 43.881 6.13075C43.4717 6.09554 43.1309 6.15667 42.8586 6.31413C42.5867 6.4675 42.4015 6.70028 42.3029 7.01245L41.2611 6.92283C41.3488 6.35896 41.6382 5.91521 42.1294 5.5916C42.6251 5.26425 43.245 5.13259 43.9891 5.1966C44.7456 5.26167 45.3284 5.5009 45.7373 5.91428C46.1504 6.32802 46.3288 6.85106 46.2725 7.48341L45.881 11.8833L44.8578 11.7953L44.9553 10.6999L44.9305 10.6978C44.7039 11.0442 44.3927 11.3113 43.9969 11.4993C43.6011 11.6872 43.1861 11.7625 42.7521 11.7252Z" fill="black"/>
<path d="M52.9898 8.18455L51.9356 8.09387C51.8856 7.71959 51.7285 7.40187 51.4643 7.14071C51.2043 6.87991 50.8489 6.73013 50.3983 6.69136C49.8361 6.643 49.3643 6.81825 48.9831 7.21709C48.6022 7.61186 48.3798 8.16826 48.3159 8.88628C48.251 9.61654 48.3713 10.2065 48.6771 10.6563C48.9869 11.1063 49.4251 11.3557 49.9914 11.4044C50.4255 11.4418 50.7925 11.3665 51.0925 11.1785C51.397 10.9868 51.614 10.7013 51.7436 10.3219L52.804 10.4131C52.6647 11.0424 52.3269 11.5375 51.7908 11.8984C51.2591 12.2555 50.6295 12.4028 49.9019 12.3402C49.0007 12.2627 48.3054 11.9069 47.8161 11.2728C47.3272 10.6347 47.128 9.8077 47.2183 8.79187C47.3073 7.79235 47.649 7.01807 48.2436 6.46902C48.8385 5.91589 49.5825 5.67774 50.4754 5.75455C51.2443 5.82069 51.8495 6.08857 52.291 6.55819C52.7365 7.02816 52.9695 7.57028 52.9898 8.18455Z" fill="black"/>
<path d="M55.0633 9.10904L58.1673 6.5272L59.4758 6.63975L56.4346 9.14683L58.9963 13.0115L57.7437 12.9037L55.6136 9.73601L54.962 10.2473L54.7485 12.6461L53.6695 12.5533L54.4553 3.72286L55.5343 3.81567L55.0633 9.10904Z" fill="black"/>
<path d="M62.5473 7.72408C62.0471 7.68105 61.6163 7.81666 61.2551 8.1309C60.8984 8.44142 60.6797 8.86248 60.5991 9.39407L64.1027 9.69545C64.1382 9.15587 64.014 8.70326 63.7299 8.33762C63.4458 7.97198 63.0516 7.76747 62.5473 7.72408ZM63.9086 11.5965L64.9689 11.6877C64.8238 12.2425 64.4849 12.6799 63.9524 13C63.424 13.3204 62.8105 13.4506 62.1118 13.3905C61.1899 13.3112 60.4905 12.955 60.0136 12.3221C59.5368 11.6891 59.343 10.8708 59.4323 9.86717C59.5208 8.87173 59.8568 8.09284 60.44 7.53048C61.0274 6.96849 61.7634 6.72554 62.6481 6.80164C63.5163 6.87632 64.1769 7.22296 64.6301 7.84158C65.0833 8.4602 65.2668 9.25295 65.1808 10.2198L65.1448 10.6237L60.5188 10.2258L60.5134 10.287C60.4589 10.8989 60.5849 11.4031 60.8912 11.7994C61.1975 12.1957 61.6401 12.4188 62.2188 12.4686C62.624 12.5034 62.9773 12.4413 63.2789 12.2823C63.5805 12.1232 63.7904 11.8946 63.9086 11.5965Z" fill="black"/>
<path d="M65.9787 13.6121L66.545 7.24784L67.562 7.33532L67.4694 8.37564L67.4942 8.37777C67.6333 8.03208 67.8504 7.76916 68.1455 7.589C68.4451 7.40512 68.783 7.32936 69.1592 7.36172C69.246 7.36919 69.3895 7.39592 69.5895 7.4419L69.4975 8.47609C69.3853 8.42534 69.1949 8.38841 68.9262 8.36529C68.5087 8.32937 68.1617 8.43724 67.8852 8.68888C67.6087 8.94053 67.4504 9.29073 67.4105 9.7395L67.0577 13.7049L65.9787 13.6121Z" fill="black"/>
<path d="M69.8593 15.7157L68.9601 15.6383L69.8388 12.5752L70.986 12.6739L69.8593 15.7157Z" fill="black"/>
<path d="M75.0148 8.05657C75.0834 7.28551 75.4215 6.66919 76.0291 6.20759C76.6371 5.74192 77.3627 5.54535 78.2061 5.61789C79.0039 5.68653 79.659 5.97925 80.1712 6.49606C80.6834 7.01288 80.9094 7.6099 80.8491 8.28712C80.8056 8.77668 80.6272 9.23615 80.3141 9.66552C80.0009 10.0949 79.434 10.6607 78.6134 11.363L76.1447 13.4753L76.1425 13.4998L80.5019 13.8748L80.4148 14.8539L74.5113 14.3461L74.5789 13.5873L78.0203 10.5843C78.6753 10.0117 79.1143 9.57259 79.3373 9.26701C79.5644 8.96179 79.6943 8.62559 79.7269 8.25842C79.7647 7.83413 79.6232 7.45815 79.3024 7.13046C78.9858 6.80313 78.5815 6.61831 78.0896 6.57599C77.5645 6.53083 77.1116 6.65836 76.7308 6.95858C76.35 7.25881 76.1377 7.65574 76.0937 8.14938L76.0932 8.1555L75.0142 8.06269L75.0148 8.05657Z" fill="black"/>
<path d="M84.7672 15.3763C83.9115 15.3027 83.2175 15.0025 82.6854 14.4758C82.1574 13.9494 81.904 13.3089 81.9253 12.5543L83.0229 12.6487C83.0308 13.1222 83.2054 13.5236 83.5468 13.8531C83.8886 14.1784 84.3282 14.3643 84.8657 14.4105C85.4734 14.4628 85.9841 14.3176 86.3978 13.975C86.8157 13.6327 87.0511 13.1638 87.1041 12.5681C87.1571 11.9725 87.0083 11.4685 86.6576 11.056C86.3114 10.6398 85.8406 10.4061 85.2453 10.3549C84.8278 10.3189 84.4417 10.3741 84.0871 10.5204C83.7325 10.6666 83.4504 10.887 83.241 11.1814L82.193 11.0912L83.1228 6.18883L88.2449 6.62943L88.1578 7.60855L83.9535 7.24689L83.4247 10.0996L83.4495 10.1017C83.6757 9.85397 83.9712 9.66973 84.336 9.54901C84.7049 9.42864 85.1023 9.38677 85.5281 9.4234C86.388 9.49737 87.0701 9.83764 87.5743 10.4442C88.083 11.047 88.2993 11.7768 88.223 12.6336C88.1443 13.5188 87.7822 14.2174 87.1368 14.7292C86.4914 15.241 85.7015 15.4567 84.7672 15.3763Z" fill="black"/>
<path d="M21.118 27.6894L20.235 27.6135L20.8636 20.5491L21.7318 20.6238L25.1573 26.5076L25.2019 26.5115L25.6955 20.9647L26.5785 21.0407L25.9499 28.1051L25.0818 28.0304L21.6545 22.1661L21.6099 22.1623L21.118 27.6894Z" fill="black"/>
<path d="M29.6688 23.9507C29.2686 23.9162 28.9241 24.0247 28.6351 24.2761C28.3497 24.5245 28.1748 24.8614 28.1103 25.2867L30.9131 25.5278C30.9416 25.0961 30.8421 24.734 30.6149 24.4415C30.3876 24.149 30.0723 23.9854 29.6688 23.9507ZM30.7578 27.0486L31.6061 27.1215C31.49 27.5654 31.2189 27.9154 30.7929 28.1714C30.3702 28.4277 29.8793 28.5319 29.3204 28.4838C28.5829 28.4203 28.0234 28.1354 27.6419 27.629C27.2604 27.1226 27.1053 26.468 27.1768 25.6651C27.2477 24.8688 27.5164 24.2457 27.983 23.7958C28.4529 23.3462 29.0417 23.1518 29.7495 23.2127C30.444 23.2724 30.9725 23.5498 31.335 24.0447C31.6976 24.5396 31.8444 25.1738 31.7756 25.9473L31.7468 26.2704L28.0461 25.952L28.0417 26.001C27.9981 26.4905 28.0989 26.8939 28.3439 27.2109C28.589 27.528 28.943 27.7064 29.406 27.7463C29.7301 27.7741 30.0128 27.7245 30.2541 27.5972C30.4954 27.47 30.6633 27.2871 30.7578 27.0486Z" fill="black"/>
<path d="M39.4302 24.1342L37.5385 29.1019L36.6604 29.0264L35.8453 24.9851L35.8254 24.9834L34.3139 28.8245L33.4358 28.749L32.4453 23.5334L33.3035 23.6072L33.9668 27.8377L33.9867 27.8394L35.521 23.798L36.3544 23.8697L37.1567 28.112L37.1765 28.1138L38.5769 24.0608L39.4302 24.1342Z" fill="black"/>
<path d="M42.0273 31.407C41.8751 31.3939 41.752 31.3734 41.6578 31.3456L41.7214 30.6309C41.7993 30.654 41.911 30.6718 42.0566 30.6844C42.298 30.7051 42.4971 30.6581 42.654 30.5434C42.8105 30.4318 42.9516 30.2319 43.0773 29.9434L43.2281 29.5963L41.7766 24.3361L42.6994 24.4154L43.7508 28.7779L43.7657 28.7792L45.5717 24.6625L46.4795 24.7406L43.9657 30.0149C43.6913 30.5898 43.4153 30.9755 43.1379 31.172C42.8638 31.3688 42.4936 31.4471 42.0273 31.407Z" fill="black"/>
<path d="M48.6925 30.1502C47.9716 30.0882 47.4139 29.8017 47.0194 29.291C46.6253 28.7769 46.4641 28.1168 46.5358 27.3107C46.6075 26.5045 46.8827 25.8836 47.3614 25.4479C47.8403 25.009 48.4403 24.8205 49.1613 24.8825C49.8789 24.9442 50.4349 25.2321 50.829 25.7462C51.2235 26.257 51.3848 26.9155 51.3131 27.7216C51.2416 28.5245 50.9664 29.1454 50.4875 29.5843C50.0085 30.0233 49.4102 30.2119 48.6925 30.1502ZM47.6974 28.8066C47.9422 29.1631 48.2962 29.3613 48.7592 29.4011C49.2222 29.441 49.604 29.3077 49.9045 29.0014C50.2053 28.6918 50.3822 28.2401 50.435 27.6461C50.4879 27.0521 50.3934 26.5786 50.1515 26.2256C49.9099 25.8694 49.5576 25.6714 49.0946 25.6315C48.6316 25.5917 48.248 25.7264 47.9439 26.0357C47.6431 26.3453 47.4664 26.7954 47.4139 27.3862C47.3613 27.9769 47.4558 28.4504 47.6974 28.8066Z" fill="black"/>
<path d="M51.9597 30.3424L52.4127 25.251L53.2263 25.321L53.1522 26.1532L53.1721 26.1549C53.2833 25.8784 53.457 25.668 53.6931 25.5239C53.9328 25.3768 54.2032 25.3162 54.5041 25.3421C54.5736 25.3481 54.6883 25.3694 54.8483 25.4062L54.7747 26.2336C54.685 26.193 54.5327 26.1634 54.3177 26.1449C53.9837 26.1162 53.7061 26.2025 53.4849 26.4038C53.2637 26.6051 53.1371 26.8853 53.1051 27.2443L52.8229 30.4167L51.9597 30.3424Z" fill="black"/>
<path d="M56.2546 27.8605L58.7378 25.7951L59.7845 25.8851L57.3516 27.8908L59.4009 30.9825L58.3989 30.8963L56.6948 28.3621L56.1735 28.7711L56.0028 30.6902L55.1396 30.6159L55.7682 23.5516L56.6314 23.6258L56.2546 27.8605Z" fill="black"/>
<path d="M98.1056 29.2459C98.1605 28.6291 98.431 28.136 98.917 27.7667C99.4034 27.3942 99.9839 27.2369 100.659 27.295C101.297 27.3499 101.821 27.5841 102.231 27.9975C102.64 28.411 102.821 28.8886 102.773 29.4304C102.738 29.822 102.596 30.1896 102.345 30.5331C102.095 30.8766 101.641 31.3292 100.984 31.891L99.0095 33.5809L99.0078 33.6005L102.495 33.9005L102.426 34.6838L97.7028 34.2775L97.7569 33.6705L100.51 31.2681C101.034 30.81 101.385 30.4587 101.564 30.2143C101.745 29.9701 101.849 29.7011 101.875 29.4074C101.906 29.068 101.792 28.7672 101.536 28.505C101.282 28.2432 100.959 28.0953 100.565 28.0614C100.145 28.0253 99.7831 28.1273 99.4784 28.3675C99.1738 28.6077 99.0039 28.9253 98.9688 29.3202L98.9683 29.3251L98.1051 29.2508L98.1056 29.2459Z" fill="#BDBDBD"/>
<path d="M105.521 34.9501L105.974 29.8586L106.788 29.9286L106.715 30.7413L106.735 30.743C106.886 30.4764 107.095 30.2741 107.364 30.1361C107.633 29.9948 107.938 29.9388 108.279 29.9681C108.629 29.9982 108.923 30.109 109.159 30.3003C109.396 30.4884 109.556 30.7423 109.641 31.062L109.661 31.0637C109.83 30.7724 110.065 30.5542 110.364 30.4089C110.667 30.2607 111.001 30.2022 111.365 30.2335C111.874 30.2773 112.267 30.4641 112.544 30.7938C112.825 31.1205 112.943 31.5368 112.898 32.0427L112.585 35.5577L111.722 35.4835L112.018 32.1643C112.049 31.815 111.978 31.536 111.807 31.3273C111.639 31.1155 111.385 30.995 111.044 30.9657C110.704 30.9364 110.414 31.0249 110.176 31.2314C109.938 31.4345 109.804 31.7091 109.773 32.055L109.485 35.291L108.622 35.2168L108.925 31.8045C108.953 31.4977 108.878 31.2447 108.703 31.0454C108.528 30.8429 108.28 30.7278 107.959 30.7003C107.618 30.6709 107.325 30.7641 107.079 30.9798C106.837 31.1957 106.7 31.4799 106.668 31.8324L106.384 35.0243L105.521 34.9501Z" fill="#BDBDBD"/>
<path d="M113.731 35.6563L114.184 30.5649L115.048 30.6391L114.595 35.7306L113.731 35.6563ZM114.692 29.7453C114.547 29.7328 114.426 29.6697 114.329 29.5562C114.233 29.4426 114.191 29.3141 114.204 29.1705C114.217 29.0236 114.281 28.9041 114.395 28.812C114.51 28.7167 114.641 28.6753 114.786 28.6878C114.935 28.7006 115.058 28.7638 115.154 28.8773C115.251 28.9876 115.293 29.1162 115.28 29.2631C115.267 29.4067 115.203 29.5261 115.088 29.6215C114.973 29.7168 114.841 29.7581 114.692 29.7453Z" fill="#BDBDBD"/>
<path d="M115.805 35.8347L116.434 28.7703L117.297 28.8446L116.668 35.9089L115.805 35.8347Z" fill="#BDBDBD"/>
<path d="M121.676 35.6984C122.083 35.7334 122.434 35.6386 122.731 35.4142C123.031 35.1868 123.197 34.8903 123.23 34.5248L123.267 34.1087L121.88 34.0733C121.531 34.0662 121.254 34.1263 121.05 34.2534C120.848 34.3808 120.737 34.5652 120.715 34.8067C120.694 35.0483 120.771 35.2506 120.946 35.4136C121.122 35.5767 121.365 35.6716 121.676 35.6984ZM121.418 36.4063C120.905 36.3622 120.503 36.1861 120.21 35.8782C119.921 35.5704 119.797 35.1881 119.837 34.7312C119.876 34.2939 120.069 33.9586 120.417 33.7254C120.767 33.4924 121.242 33.3853 121.84 33.4038L123.326 33.4478L123.364 33.0218C123.391 32.7118 123.314 32.4601 123.131 32.2668C122.948 32.0735 122.678 31.9615 122.321 31.9307C121.994 31.9026 121.721 31.9515 121.503 32.0774C121.286 32.2001 121.137 32.3864 121.058 32.6361L120.225 32.5644C120.295 32.1133 120.527 31.7583 120.92 31.4994C121.316 31.2375 121.812 31.1322 122.407 31.1834C123.013 31.2355 123.479 31.4269 123.806 31.7576C124.136 32.0886 124.279 32.507 124.234 33.0129L123.921 36.5328L123.102 36.4624L123.18 35.5861L123.161 35.5844C122.979 35.8615 122.73 36.0752 122.414 36.2256C122.097 36.3759 121.765 36.4362 121.418 36.4063Z" fill="#BDBDBD"/>
<path d="M132.034 32.1003L130.142 37.0679L129.264 36.9924L128.449 32.9512L128.429 32.9494L126.917 36.7906L126.039 36.715L125.049 31.4994L125.907 31.5732L126.57 35.8037L126.59 35.8054L128.124 31.764L128.958 31.8357L129.76 36.0781L129.78 36.0798L131.18 32.0269L132.034 32.1003Z" fill="#BDBDBD"/>
<path d="M133.949 36.7541C134.356 36.7891 134.707 36.6944 135.004 36.4699C135.304 36.2425 135.47 35.9461 135.503 35.5805L135.54 35.1644L134.153 35.129C133.804 35.122 133.527 35.182 133.323 35.3091C133.121 35.4365 133.01 35.621 132.988 35.8625C132.967 36.104 133.044 36.3063 133.219 36.4694C133.395 36.6325 133.638 36.7274 133.949 36.7541ZM133.691 37.462C133.178 37.4179 132.776 37.2419 132.483 36.9339C132.194 36.6262 132.07 36.2439 132.11 35.7869C132.149 35.3496 132.342 35.0143 132.69 34.7811C133.04 34.5482 133.515 34.441 134.113 34.4596L135.599 34.5035L135.637 34.0776C135.664 33.7675 135.587 33.5158 135.404 33.3225C135.221 33.1292 134.951 33.0172 134.594 32.9865C134.267 32.9583 133.994 33.0072 133.776 33.1332C133.559 33.2559 133.41 33.4421 133.332 33.6918L132.498 33.6201C132.568 33.169 132.8 32.814 133.193 32.5552C133.589 32.2933 134.085 32.1879 134.681 32.2392C135.286 32.2912 135.752 32.4826 136.079 32.8133C136.41 33.1443 136.552 33.5627 136.507 34.0686L136.194 37.5885L135.376 37.5181L135.454 36.6418L135.434 36.6401C135.252 36.9172 135.003 37.1309 134.687 37.2813C134.37 37.4316 134.038 37.4919 133.691 37.462Z" fill="#BDBDBD"/>
<path d="M137.548 39.6239C137.396 39.6108 137.272 39.5904 137.178 39.5626L137.242 38.8478C137.32 38.8709 137.431 38.8888 137.577 38.9013C137.818 38.9221 138.018 38.8751 138.174 38.7603C138.331 38.6488 138.472 38.4488 138.598 38.1603L138.749 37.8132L137.297 32.553L138.22 32.6324L139.271 36.9949L139.286 36.9962L141.092 32.8795L142 32.9576L139.486 38.2318C139.212 38.8068 138.936 39.1925 138.658 39.389C138.384 39.5857 138.014 39.664 137.548 39.6239Z" fill="#BDBDBD"/>
<g clip-path="url(#clip0_679_1808)">
<path d="M8.41253 15.8431C6.98934 15.7226 5.57543 16.1639 4.48083 17.0703C3.38624 17.9768 2.70032 19.2743 2.57347 20.6785C2.23508 24.4814 6.81217 29.6745 7.00677 29.8936C7.04457 29.9368 7.09796 29.9638 7.15559 29.9687C7.21323 29.9737 7.27056 29.9563 7.31541 29.9202C7.54576 29.7376 12.9705 25.4048 13.3089 21.6019C13.432 20.1975 12.9856 18.8025 12.0677 17.723C11.1499 16.6434 9.83539 15.9674 8.41253 15.8431ZM7.72514 23.568C7.23856 23.5262 6.77558 23.3429 6.39474 23.0413C6.0139 22.7397 5.73231 22.3334 5.58558 21.8738C5.43885 21.4141 5.43356 20.9218 5.5704 20.459C5.70723 19.9962 5.98004 19.5838 6.35432 19.2738C6.72859 18.9639 7.18754 18.7704 7.6731 18.7177C8.15867 18.6651 8.64906 18.7557 9.08225 18.9782C9.51544 19.2006 9.87198 19.5448 10.1068 19.9673C10.3416 20.3898 10.4441 20.8716 10.4014 21.3518C10.3437 21.9956 10.0294 22.5906 9.52765 23.0061C9.02585 23.4217 8.37754 23.6238 7.72514 23.568Z" fill="black"/>
</g>
<defs>
<clipPath id="clip0_679_1808">
<rect width="14.2751" height="14.0909" fill="white" transform="matrix(1.00272 0.0862536 -0.0892019 1.00246 1.25606 15.2271)"/>
</clipPath>
</defs>
</svg>
