<svg width="18" height="18" viewBox="0 0 18 18" fill="none" xmlns="http://www.w3.org/2000/svg">
<path d="M15.8173 5.23514C15.1798 4.53014 14.1148 4.17764 12.5698 4.17764H12.3898V4.14764C12.3898 2.88764 12.3898 1.32764 9.56978 1.32764H8.42978C5.60978 1.32764 5.60978 2.89514 5.60978 4.14764V4.18514H5.42978C3.87728 4.18514 2.81978 4.53764 2.18228 5.24264C1.43978 6.06764 1.46228 7.17764 1.53728 7.93514L1.54478 7.98764L1.59724 8.53842C1.6115 8.68819 1.69223 8.82358 1.81829 8.9057C2.00007 9.02409 2.26513 9.19366 2.42978 9.28514C2.53478 9.35264 2.64728 9.41264 2.75978 9.47264C4.04228 10.1776 5.45228 10.6501 6.88478 10.8826C6.95228 11.5876 7.25978 12.4126 8.90228 12.4126C10.5448 12.4126 10.8673 11.5951 10.9198 10.8676C12.4498 10.6201 13.9273 10.0876 15.2623 9.30764C15.3073 9.28514 15.3373 9.26264 15.3748 9.24014C15.6567 9.08076 15.9487 8.88632 16.218 8.69367C16.3313 8.61257 16.4035 8.48639 16.4189 8.34788L16.4248 8.29514L16.4623 7.94264C16.4698 7.89764 16.4698 7.86014 16.4773 7.80764C16.5373 7.05014 16.5223 6.01514 15.8173 5.23514ZM9.81728 10.3726C9.81728 11.1676 9.81728 11.2876 8.89478 11.2876C7.97228 11.2876 7.97228 11.1451 7.97228 10.3801V9.43514H9.81728V10.3726ZM6.68228 4.17764V4.14764C6.68228 2.87264 6.68228 2.40014 8.42978 2.40014H9.56978C11.3173 2.40014 11.3173 2.88014 11.3173 4.14764V4.18514H6.68228V4.17764Z" fill="#AA6BE9"/>
<path d="M15.4541 10.3962C15.8084 10.2295 16.2152 10.5105 16.1798 10.9005L15.9309 13.6425C15.7734 15.1425 15.1584 16.6725 11.8584 16.6725H6.14336C2.84336 16.6725 2.22836 15.1425 2.07086 13.65L1.83515 11.0572C1.80011 10.6717 2.19785 10.3913 2.55114 10.5494C3.41315 10.9351 4.78648 11.5216 5.6914 11.7696C5.85522 11.8145 5.98881 11.9329 6.06485 12.0848C6.53249 13.0188 7.50796 13.515 8.90336 13.515C10.285 13.515 11.2722 12.9996 11.7417 12.0625C11.8179 11.9105 11.9513 11.7922 12.1151 11.747C13.0786 11.4812 14.548 10.8225 15.4541 10.3962Z" fill="#AA6BE9"/>
</svg>
