<svg width="157" height="154" viewBox="0 0 157 154" fill="none" xmlns="http://www.w3.org/2000/svg">
<ellipse opacity="0.35" cx="78.1159" cy="77" rx="78.1159" ry="77" fill="#F7F0FD"/>
<ellipse cx="78.1137" cy="77" rx="60.8695" ry="60" fill="#F7F0FD"/>
<path fill-rule="evenodd" clip-rule="evenodd" d="M75.5424 44.3736C76.7484 43.4308 78.4417 43.4308 79.6477 44.3736L85.1787 48.6967L92.1304 47.7183C93.6464 47.5049 95.1127 48.3515 95.6861 49.771L98.3144 56.2805L104.824 58.909C106.243 59.4821 107.09 60.9485 106.877 62.4644L105.898 69.416L110.221 74.9472C111.164 76.1532 111.164 77.8465 110.221 79.0525L105.898 84.5835L106.877 91.5352C107.09 93.0512 106.243 94.5175 104.824 95.0908L98.3144 97.7192L95.6861 104.229C95.1127 105.648 93.6464 106.495 92.1304 106.282L85.1787 105.303L79.6477 109.626C78.4417 110.569 76.7484 110.569 75.5424 109.626L70.0113 105.303L63.0597 106.282C61.5437 106.495 60.0774 105.648 59.5042 104.229L56.8758 97.7192L50.3663 95.0908C48.9467 94.5175 48.1001 93.0512 48.3135 91.5352L49.292 84.5835L44.9688 79.0525C44.026 77.8465 44.026 76.1532 44.9688 74.9472L49.292 69.416L48.3135 62.4644C48.1001 60.9485 48.9467 59.4821 50.3663 58.909L56.8758 56.2805L59.5042 49.771C60.0774 48.3515 61.5437 47.5049 63.0597 47.7183L70.0113 48.6967L75.5424 44.3736ZM89.9521 72.6902C91.2537 71.3885 91.2537 69.2779 89.9521 67.9761C88.6504 66.6744 86.5397 66.6744 85.2381 67.9761L74.2617 78.9525L69.9521 74.6428C68.6503 73.3412 66.5398 73.3412 65.238 74.6428C63.9363 75.9445 63.9363 78.0552 65.238 79.3568L71.9047 86.0235C73.2064 87.3252 75.3171 87.3252 76.6187 86.0235L89.9521 72.6902Z" fill="#AA6BE9"/>
</svg>
