<svg width="27" height="27" viewBox="0 0 27 27" fill="none" xmlns="http://www.w3.org/2000/svg">
<path d="M21.7574 16.3012L20.6324 14.4337C20.3962 14.0174 20.1824 13.2299 20.1824 12.7687V9.92244C20.1824 7.2787 18.63 4.99496 16.3912 3.92622C15.8062 2.89123 14.7262 2.24998 13.4887 2.24998C12.2625 2.24998 11.16 2.91373 10.575 3.95997C8.38126 5.05121 6.86252 7.31245 6.86252 9.92244V12.7687C6.86252 13.2299 6.64877 14.0174 6.41252 14.4224L5.27627 16.3012C4.82628 17.0549 4.72503 17.8874 5.00628 18.6524C5.27627 19.4061 5.91752 19.9911 6.75002 20.2724C8.9325 21.0149 11.2275 21.3749 13.5225 21.3749C15.8175 21.3749 18.1125 21.0149 20.2949 20.2836C21.0824 20.0249 21.6899 19.4286 21.9824 18.6524C22.2749 17.8761 22.1962 17.0212 21.7574 16.3012Z" fill="#AA6BE9"/>
<path d="M16.6829 22.5111C16.2104 23.8161 14.9617 24.7498 13.4992 24.7498C12.6105 24.7498 11.733 24.3898 11.1142 23.7486C10.7542 23.4111 10.4842 22.9611 10.3267 22.4999C10.473 22.5224 10.6192 22.5336 10.7767 22.5561C11.0355 22.5899 11.3055 22.6236 11.5755 22.6461C12.2167 22.7024 12.8692 22.7361 13.5217 22.7361C14.163 22.7361 14.8042 22.7024 15.4342 22.6461C15.6704 22.6236 15.9067 22.6124 16.1317 22.5786C16.3117 22.5561 16.4917 22.5336 16.6829 22.5111Z" fill="#AA6BE9"/>
</svg>
