<svg width="20" height="20" viewBox="0 0 20 20" fill="none" xmlns="http://www.w3.org/2000/svg">
<path d="M4.54906 15.4083V12.975C4.54906 12.1667 5.1824 11.4417 6.0824 11.4417C6.89073 11.4417 7.61573 12.075 7.61573 12.975V15.3167C7.61573 16.9417 6.26573 18.2917 4.64073 18.2917C3.01573 18.2917 1.66573 16.9333 1.66573 15.3167V10.1833C1.57406 5.5 5.27406 1.70834 9.9574 1.70834C14.6407 1.70834 18.3324 5.5 18.3324 10.0917V15.225C18.3324 16.85 16.9824 18.2 15.3574 18.2C13.7324 18.2 12.3824 16.85 12.3824 15.225V12.8833C12.3824 12.075 13.0157 11.35 13.9157 11.35C14.7241 11.35 15.4491 11.9833 15.4491 12.8833V15.4083" stroke="black" stroke-width="1.4" stroke-linecap="round" stroke-linejoin="round"/>
</svg>
