<svg width="135" height="100" viewBox="0 0 135 100" fill="none" xmlns="http://www.w3.org/2000/svg">
<path d="M133.783 27.0984C129.798 25.2387 125.471 24.3088 121.145 24.3088C113.516 24.3088 105.888 27.2122 100.062 33.038L90.7256 42.3744L67.062 66.038C67.062 66.057 67.043 66.057 67.043 66.076C66.1511 67.1197 65.1833 68.0875 64.1396 68.9794L64.1206 68.9984C59.1108 73.325 52.6019 75.9437 45.4668 75.9437C43.3414 75.9437 41.292 75.716 39.2994 75.2606H39.2805L61.1793 97.1594C60.1356 96.4762 59.1298 95.6792 58.219 94.7684L16.9072 53.4566H16.9262C19.0136 53.9121 21.1769 54.1588 23.3972 54.1588C30.8739 54.1588 37.7244 51.4072 42.9619 46.8718C42.9809 46.8718 42.9809 46.8528 42.9998 46.8528C44.0815 45.904 45.1062 44.8983 46.0361 43.8166C46.0551 43.7976 46.0551 43.7976 46.0551 43.7787L70.8762 18.9575L80.6681 9.16562C86.7785 3.05521 94.7866 0 102.795 0C110.803 0 118.811 3.05521 124.921 9.16562C129.95 14.2134 132.91 20.5325 133.783 27.0984Z" fill="white"/>
<path d="M124.903 53.3999L115.111 63.1918L83.5536 94.7496C77.4812 100.822 68.1068 101.638 61.1804 97.1406L39.2816 75.2608H39.3006C41.2931 75.6972 43.3426 75.9439 45.4679 75.9439C52.6031 75.9439 59.112 73.3252 64.1218 68.9986C64.1407 68.9986 64.1407 68.9796 64.1407 68.9796C65.1844 68.0877 66.1522 67.1199 67.0441 66.0762C67.0441 66.0762 67.0631 66.0572 67.0631 66.0382L90.7267 42.3746L100.063 33.0382C105.889 27.2124 113.517 24.309 121.146 24.309C125.454 24.309 129.78 25.2389 133.784 27.0986C135.037 36.435 132.076 46.2268 124.903 53.3999Z" fill="white"/>
<path d="M16.8506 53.3996C16.8696 53.4186 16.9075 53.4376 16.9265 53.4565H16.9075L16.8506 53.3996Z" fill="white"/>
<path d="M58.6752 20.2289L39.9644 39.3381L38.2565 41.084C34.1955 44.8223 28.7683 47.1185 22.8097 47.1185C10.2093 47.0995 0 36.9092 0 24.3088C0 11.7084 10.2093 1.49911 22.8097 1.49911C29.6032 1.49911 35.6757 5.06668 40.4008 9.71591C48.5228 18.6348 58.6752 20.2289 58.6752 20.2289Z" fill="white"/>
<path d="M12.7324 27.1367C14.2939 27.1367 15.5599 25.8708 15.5599 24.3092C15.5599 22.7476 14.2939 21.4817 12.7324 21.4817C11.1708 21.4817 9.90488 22.7476 9.90488 24.3092C9.90488 25.8708 11.1708 27.1367 12.7324 27.1367Z" fill="#AA6BE9"/>
<path d="M22.145 27.1367C23.7066 27.1367 24.9725 25.8708 24.9725 24.3092C24.9725 22.7476 23.7066 21.4817 22.145 21.4817C20.5834 21.4817 19.3175 22.7476 19.3175 24.3092C19.3175 25.8708 20.5834 27.1367 22.145 27.1367Z" fill="#AA6BE9"/>
<path d="M31.5382 27.1367C33.0997 27.1367 34.3656 25.8708 34.3656 24.3092C34.3656 22.7476 33.0997 21.4817 31.5382 21.4817C29.9766 21.4817 28.7107 22.7476 28.7107 24.3092C28.7107 25.8708 29.9766 27.1367 31.5382 27.1367Z" fill="#AA6BE9"/>
</svg>
