<svg width="88" height="100" viewBox="0 0 88 100" fill="none" xmlns="http://www.w3.org/2000/svg">
<path d="M58.3143 3.90426H30.0897C28.1007 4.89181 14.2853 12.8582 18.6291 41.8137L25.0869 92.8087H63.3157L69.7735 41.8137C74.1178 12.8582 60.303 4.89181 58.3143 3.90426Z" fill="#2A2E6D"/>
<path d="M87.5958 99.9995C88.0011 89.0575 81.1096 84.8493 81.1096 84.8493L52.076 68.4363H35.5357L6.50388 84.8493C6.50388 84.8493 -0.388056 89.0575 0.0171962 99.9995H87.5958Z" fill="#F9C5B8"/>
<path d="M33.4704 70.5592H54.1418C49.5621 68.086 50.7961 58.578 50.7961 58.578H36.816C36.8158 58.578 38.0505 68.086 33.4704 70.5592Z" fill="#F9C5B8"/>
<path d="M36.5309 65.7262C41.4698 65.1622 46.3037 63.5068 50.6484 61.0594C50.6651 59.5998 50.7974 58.578 50.7974 58.578H36.8173C36.8171 58.578 37.3022 62.3247 36.5309 65.7262Z" fill="#F5A997"/>
<path d="M67.9178 37.3965C67.4828 40.7594 65.5802 43.2568 63.6679 42.9741C61.7555 42.6912 60.5582 39.7359 60.9928 36.3728C61.4278 33.0097 63.331 30.5123 65.2435 30.7949C67.1556 31.0778 68.3533 34.0332 67.9178 37.3965Z" fill="#F5A997"/>
<path d="M63.64 40.4775C63.3807 40.4775 63.1453 40.3014 63.0802 40.0383C62.6035 38.1084 62.3868 35.8215 64.395 33.4928C64.6024 33.2518 64.9678 33.2244 65.2088 33.4326C65.4504 33.6407 65.4771 34.0054 65.269 34.2468C63.5263 36.2682 63.8038 38.1534 64.2005 39.7616C64.2777 40.0712 64.0885 40.384 63.7785 40.4603C63.7326 40.4718 63.6861 40.4775 63.64 40.4775Z" fill="#E9837B"/>
<path d="M65.5809 37.1257C65.5456 37.1257 65.509 37.1224 65.4724 37.1154C64.547 36.9401 63.5915 37.1143 63.5815 37.1156C63.268 37.1729 62.967 36.9677 62.908 36.655C62.8489 36.3421 63.0544 36.0405 63.367 35.981C63.4144 35.9717 64.5391 35.7629 65.688 35.981C66.0011 36.0405 66.2071 36.3426 66.1475 36.6559C66.0951 36.9328 65.8528 37.1257 65.5809 37.1257Z" fill="#E9837B"/>
<path d="M19.6947 37.3965C20.1301 40.7594 22.0327 43.2568 23.9445 42.9741C25.857 42.6912 27.0545 39.7359 26.6201 36.3728C26.1847 33.0097 24.2814 30.5123 22.3694 30.7949C20.4569 31.0778 19.2592 34.0332 19.6947 37.3965Z" fill="#F5A997"/>
<path d="M23.9718 40.4773C23.9262 40.4773 23.8792 40.4718 23.8332 40.4601C23.5236 40.3838 23.3344 40.0709 23.4111 39.7614C23.8082 38.1531 24.086 36.268 22.3431 34.2466C22.1348 34.0049 22.1619 33.6405 22.4029 33.4323C22.6445 33.224 23.0096 33.2511 23.2171 33.4925C25.2246 35.8211 25.0081 38.1079 24.5319 40.0381C24.4673 40.3011 24.2311 40.4773 23.9718 40.4773Z" fill="#E9837B"/>
<path d="M22.0313 37.1253C21.7597 37.1253 21.5176 36.9323 21.4651 36.6554C21.4056 36.3423 21.6111 36.04 21.9242 35.9805C23.0727 35.7624 24.1983 35.9712 24.2457 35.9805C24.5588 36.04 24.7643 36.3423 24.7047 36.6554C24.645 36.9687 24.3405 37.1731 24.0303 37.1151C24.0144 37.1122 23.063 36.94 22.1398 37.1149C22.1037 37.1219 22.0671 37.1253 22.0313 37.1253Z" fill="#E9837B"/>
<path d="M63.1755 29.3381C62.8326 19.7436 56.9436 7.8912 44.8701 7.95624H43.6367H42.4024C30.3286 7.8912 24.4405 19.7436 24.097 29.3381C23.7529 38.9812 26.7093 50.1029 32.7154 56.0177C35.5312 58.7903 39.8024 60.1238 43.6367 60.1906C47.4703 60.1238 51.7413 58.7903 54.5571 56.0177C60.5634 50.1029 63.5196 38.9812 63.1755 29.3381Z" fill="#F9C5B8"/>
<path d="M25.4554 27.9831C25.4618 39.3278 24.7185 39.6574 24.7185 39.6574L25.4554 27.9831Z" fill="#2A2E6D"/>
<path d="M62.2803 39.6241C64.2603 38.1378 62.6893 31.0296 65.4262 30.8307C65.4262 30.8307 72.3466 13.1976 58.3147 3.90414C51.3226 -4.20543e-07 45.3071 0 45.3071 0C14.7203 0.256645 22.4675 30.4645 22.4675 30.4645C24.1392 32.3768 23.61 35.2279 24.7188 39.6572C26.664 36.7982 26.7109 28.1655 26.7109 28.1655C30.6391 22.4615 32.4228 17.9519 32.4228 17.9519C41.8521 18.9141 52.6374 12.6484 52.6374 12.6484C54.1429 19.8285 57.2731 25.2493 60.9047 28.1655C60.9047 28.1655 61.1228 35.6115 62.2803 39.6241Z" fill="#2A2E6D"/>
<path d="M59.8581 72.8303L73.6704 80.6388C71.907 86.887 72.0128 93.4707 72.254 99.9999H15.3666C15.6086 93.4707 15.714 86.8872 13.951 80.6388L27.7636 72.8303C27.7638 72.8303 45.1511 82.487 59.8581 72.8303Z" fill="#B690C2"/>
<path d="M56.3335 30.9754C55.8405 27.5583 48.6251 27.4311 47.2164 28.8092C47.2164 28.8092 46.6729 29.7875 47.3469 30.7016C51.3948 29.212 55.1316 30.5889 56.3213 31.231C56.5087 31.253 56.3335 30.9754 56.3335 30.9754Z" fill="#2A2E6D"/>
<path d="M30.9414 30.9754C30.9414 30.9754 30.7662 31.253 30.9531 31.231C32.1433 30.5889 35.8801 29.212 39.9276 30.7016C40.602 29.7875 40.0585 28.8092 40.0585 28.8092C38.6498 27.4311 31.4344 27.5583 30.9414 30.9754Z" fill="#2A2E6D"/>
<path d="M35.9512 38.1802C36.8014 38.1802 37.4906 36.882 37.4906 35.2806C37.4906 33.6792 36.8014 32.381 35.9512 32.381C35.101 32.381 34.4118 33.6792 34.4118 35.2806C34.4118 36.882 35.101 38.1802 35.9512 38.1802Z" fill="#2A2D6B"/>
<path d="M51.3217 38.1802C52.1717 38.1802 52.8607 36.882 52.8607 35.2806C52.8607 33.6792 52.1717 32.381 51.3217 32.381C50.4717 32.381 49.7827 33.6792 49.7827 35.2806C49.7827 36.882 50.4717 38.1802 51.3217 38.1802Z" fill="#2A2D6B"/>
<path d="M44.0353 46.9538C43.9626 46.9538 43.888 46.9397 43.8162 46.9101C42.5746 46.3995 41.8986 45.8256 41.6894 45.1044C41.4129 44.1527 42.0188 43.2951 42.6608 42.3869C43.0625 41.8185 43.4777 41.2306 43.6801 40.6155C43.7791 40.3125 44.1061 40.1483 44.4084 40.2471C44.7115 40.3467 44.8765 40.673 44.7766 40.9758C44.5208 41.7554 44.0338 42.4449 43.6036 43.0532C43.1269 43.7276 42.6769 44.3646 42.798 44.782C42.8676 45.0208 43.1765 45.3983 44.2556 45.8423C44.5506 45.9638 44.691 46.3012 44.5696 46.5959C44.4781 46.8189 44.2622 46.9538 44.0353 46.9538Z" fill="#E9837B"/>
<path d="M43.7639 51.1054C41.031 51.1054 39.0213 49.7518 38.9915 49.7313C38.7289 49.5503 38.663 49.1909 38.8438 48.9283C39.0241 48.6662 39.3842 48.6002 39.6457 48.7801C39.8042 48.8886 43.5825 51.4046 47.6414 48.7718C47.9084 48.5985 48.2658 48.6741 48.4398 48.9418C48.6133 49.2094 48.537 49.5668 48.2698 49.7404C46.692 50.7639 45.1364 51.1054 43.7639 51.1054Z" fill="#E9837B"/>
</svg>
