<svg width="22" height="22" viewBox="0 0 22 22" fill="none" xmlns="http://www.w3.org/2000/svg">
<path d="M11.1463 10.6517C11.1188 10.6517 11.1005 10.6517 11.073 10.6517C11.0272 10.6425 10.963 10.6425 10.908 10.6517C8.24969 10.5692 6.24219 8.47921 6.24219 5.90337C6.24219 3.28171 8.37802 1.14587 10.9997 1.14587C13.6213 1.14587 15.7572 3.28171 15.7572 5.90337C15.748 8.47921 13.7313 10.5692 11.1738 10.6517C11.1647 10.6517 11.1555 10.6517 11.1463 10.6517ZM10.9997 2.52087C9.13885 2.52087 7.61719 4.04254 7.61719 5.90337C7.61719 7.73671 9.04719 9.21254 10.8713 9.27671C10.9172 9.26754 11.0455 9.26754 11.1647 9.27671C12.9613 9.19421 14.373 7.71837 14.3822 5.90337C14.3822 4.04254 12.8605 2.52087 10.9997 2.52087Z" fill="black"/>
<path d="M11.156 20.6709C9.35929 20.6709 7.55346 20.2126 6.18763 19.2959C4.91346 18.4526 4.2168 17.2976 4.2168 16.0417C4.2168 14.7859 4.91346 13.6217 6.18763 12.7692C8.93763 10.9451 13.3926 10.9451 16.1243 12.7692C17.3893 13.6126 18.0951 14.7676 18.0951 16.0234C18.0951 17.2792 17.3985 18.4434 16.1243 19.2959C14.7493 20.2126 12.9526 20.6709 11.156 20.6709ZM6.94846 13.9242C6.06846 14.5109 5.5918 15.2626 5.5918 16.0509C5.5918 16.8301 6.07763 17.5817 6.94846 18.1592C9.23095 19.6901 13.081 19.6901 15.3635 18.1592C16.2435 17.5726 16.7201 16.8209 16.7201 16.0326C16.7201 15.2534 16.2343 14.5017 15.3635 13.9242C13.081 12.4026 9.23095 12.4026 6.94846 13.9242Z" fill="black"/>
</svg>
