<svg width="16" height="14" viewBox="0 0 16 14" fill="none" xmlns="http://www.w3.org/2000/svg">
<path d="M11.4614 13.6486L9.74137 13.7036L9.53515 7.48951L1.96679 7.73136L2.17301 13.9455L0.45293 14.0004L0 0.352114L1.72008 0.297147L1.91594 6.19912L9.4843 5.95726L9.28844 0.0552915L11.0085 0.000324405L11.4614 13.6486Z" fill="white"/>
<path d="M13.9651 13.5686L13.6387 3.73201L15.3014 3.67887L15.6279 13.5155L13.9651 13.5686ZM14.4151 2.05024C14.1348 2.0592 13.8894 1.96604 13.6788 1.77078C13.4683 1.57552 13.3584 1.33917 13.3492 1.06172C13.3398 0.777976 13.4337 0.535108 13.6311 0.333122C13.8283 0.124831 14.067 0.0162064 14.3473 0.00724882C14.634 -0.00191236 14.8826 0.0911382 15.0932 0.2864C15.3035 0.475357 15.4134 0.71171 15.4228 0.995458C15.432 1.2729 15.3381 1.51577 15.1409 1.72406C14.9437 1.93235 14.7018 2.04108 14.4151 2.05024Z" fill="white"/>
</svg>
