<svg width="157" height="149" viewBox="0 0 157 149" fill="none" xmlns="http://www.w3.org/2000/svg">
<ellipse opacity="0.35" cx="78.1377" cy="74.4999" rx="78.1377" ry="74.4999" fill="#F7F0FD"/>
<ellipse cx="78.1355" cy="74.4998" rx="60.8865" ry="58.0519" fill="#F7F0FD"/>
<path d="M85.159 84.5143C86.0561 83.488 85.9107 81.9627 84.8343 81.1076C83.7579 80.2523 82.1581 80.3909 81.2613 81.4172L76.6973 86.639L74.8562 84.8837C73.8656 83.9391 72.2592 83.9391 71.2685 84.8837C70.2778 85.8282 70.2778 87.3598 71.2685 88.3044L75.0739 91.9326C75.578 92.4132 76.2706 92.6694 76.9827 92.6387C77.6948 92.6077 78.3605 92.2928 78.8167 91.7708L85.159 84.5143Z" fill="#AA6BE9"/>
<path fill-rule="evenodd" clip-rule="evenodd" d="M57.8416 59.9869V64.8246C53.6383 64.8246 50.2308 68.0733 50.2308 72.0811V101.107C50.2308 105.115 53.6383 108.364 57.8416 108.364H98.4326C102.636 108.364 106.043 105.115 106.043 101.107V72.0811C106.043 68.0733 102.636 64.8246 98.4326 64.8246V59.9869C98.4326 49.2999 89.3461 40.6363 78.1371 40.6363C66.9282 40.6363 57.8416 49.2999 57.8416 59.9869ZM93.3587 59.9869V64.8246H62.9155V59.9869C62.9155 51.9717 69.7305 45.474 78.1371 45.474C86.5438 45.474 93.3587 51.9717 93.3587 59.9869ZM62.9155 86.5941C62.9155 78.5788 69.7305 72.0811 78.1371 72.0811C86.5438 72.0811 93.3587 78.5788 93.3587 86.5941C93.3587 94.6093 86.5438 101.107 78.1371 101.107C69.7305 101.107 62.9155 94.6093 62.9155 86.5941Z" fill="#AA6BE9"/>
</svg>
