<svg width="37" height="13" viewBox="0 0 37 13" fill="none" xmlns="http://www.w3.org/2000/svg">
<path d="M10.1687 12.7397L8.58501 12.7438L8.57001 6.96322L1.60166 6.98131L1.61666 12.7619L0.0329483 12.766L0 0.0698565L1.58372 0.0657465L1.59796 5.55596L8.56631 5.53788L8.55207 0.0476627L10.1358 0.0435527L10.1687 12.7397Z" fill="white"/>
<path d="M16.043 4.74421C15.3332 4.74605 14.7444 4.99394 14.2764 5.48786C13.8143 5.97591 13.5608 6.6042 13.5158 7.37271L18.4869 7.35981C18.4673 6.5856 18.234 5.95565 17.7869 5.46996C17.3399 4.98427 16.7586 4.74235 16.043 4.74421ZM18.4588 10.0962L19.9634 10.0923C19.8306 10.9021 19.41 11.569 18.7016 12.0928C17.9991 12.6167 17.1522 12.8799 16.1609 12.8825C14.8528 12.8859 13.8223 12.4662 13.0693 11.6235C12.3163 10.7808 11.938 9.63802 11.9342 8.19508C11.9305 6.76387 12.3029 5.6103 13.0515 4.73437C13.8058 3.85843 14.8107 3.41884 16.0659 3.41558C17.2977 3.41238 18.2725 3.82338 18.9902 4.64857C19.708 5.47377 20.0686 6.58144 20.0722 7.97159L20.0738 8.55229L13.5101 8.56932L13.5104 8.65731C13.5126 9.53715 13.755 10.2404 14.2373 10.7671C14.7197 11.2937 15.3714 11.556 16.1926 11.5538C16.7674 11.5524 17.2569 11.4191 17.6609 11.1541C18.065 10.8891 18.3309 10.5365 18.4588 10.0962Z" fill="white"/>
<path d="M21.7123 12.7097L21.6793 0.0135956L23.2102 0.00962259L23.2432 12.7057L21.7123 12.7097Z" fill="white"/>
<path d="M25.39 12.7002L25.3571 0.00405129L26.888 7.83147e-05L26.9209 12.6962L25.39 12.7002Z" fill="white"/>
<path d="M32.7811 12.8394C31.5024 12.8427 30.4748 12.4201 29.6983 11.5716C28.9218 10.7172 28.5317 9.56563 28.528 8.11682C28.5242 6.66801 28.9083 5.51735 29.6804 4.66482C30.4524 3.80644 31.4778 3.37558 32.7565 3.37226C34.0294 3.36896 35.054 3.79449 35.8305 4.64886C36.607 5.49737 36.9971 6.64602 37.0008 8.09483C37.0046 9.53777 36.6204 10.6884 35.8484 11.5468C35.0764 12.4052 34.0539 12.8361 32.7811 12.8394ZM30.8132 10.6009C31.3016 11.1979 31.9564 11.4953 32.7776 11.4932C33.5988 11.4911 34.2491 11.1932 34.7285 10.5995C35.208 9.99996 35.4463 9.16641 35.4435 8.09887C35.4408 7.03133 35.1981 6.20197 34.7156 5.61079C34.2331 5.01375 33.5812 4.71629 32.76 4.71842C31.9388 4.72055 31.2856 5.0214 30.8003 5.62095C30.3209 6.22049 30.0825 7.0511 30.0853 8.11278C30.088 9.17445 30.3307 10.0038 30.8132 10.6009Z" fill="white"/>
</svg>
