<svg width="109" height="100" viewBox="0 0 109 100" fill="none" xmlns="http://www.w3.org/2000/svg">
<g clip-path="url(#clip0_899_7888)">
<path fill-rule="evenodd" clip-rule="evenodd" d="M31.9183 77.3235L54.5003 99.9762L77.0822 77.3235L99.6642 54.6708C112.081 42.2154 112.081 21.8208 99.6642 9.34157C87.2477 -3.11386 66.8931 -3.11386 54.4766 9.34157C42.06 -3.11386 21.7292 -3.11386 9.28895 9.34157C-3.12757 21.797 -3.12757 42.1916 9.28895 54.6708L31.9183 77.3235Z" fill="#AA6BE9"/>
<path fill-rule="evenodd" clip-rule="evenodd" d="M15.9234 15.9736C7.13231 24.7922 7.13231 39.2443 15.9234 48.063C22.7714 54.9325 33.008 56.4538 41.3488 52.6268L52.0356 56.0259L48.9077 46.9696C56.6799 38.0796 56.3245 24.4595 47.8888 15.9736C39.0977 7.1312 24.7145 7.1312 15.9234 15.9736Z" fill="white"/>
<path d="M19.7155 35.132C21.4298 35.132 22.8196 33.7379 22.8196 32.0182C22.8196 30.2984 21.4298 28.9043 19.7155 28.9043C18.0011 28.9043 16.6113 30.2984 16.6113 32.0182C16.6113 33.7379 18.0011 35.132 19.7155 35.132Z" fill="#AA6BE9"/>
<path d="M31.9186 35.132C33.6329 35.132 35.0227 33.7379 35.0227 32.0182C35.0227 30.2984 33.6329 28.9043 31.9186 28.9043C30.2042 28.9043 28.8145 30.2984 28.8145 32.0182C28.8145 33.7379 30.2042 35.132 31.9186 35.132Z" fill="#AA6BE9"/>
<path d="M44.0983 35.132C45.8126 35.132 47.2024 33.7379 47.2024 32.0182C47.2024 30.2984 45.8126 28.9043 44.0983 28.9043C42.3839 28.9043 40.9941 30.2984 40.9941 32.0182C40.9941 33.7379 42.3839 35.132 44.0983 35.132Z" fill="#AA6BE9"/>
<path fill-rule="evenodd" clip-rule="evenodd" d="M58.3867 6.03769C94.0013 8.53353 63.7656 66.1756 92.2952 62.0871L99.6645 54.6947C112.081 42.2393 112.081 21.8447 99.6645 9.36548C88.4802 -1.87769 70.8506 -2.99487 58.3867 6.03769Z" fill="#AA6BE9"/>
<path fill-rule="evenodd" clip-rule="evenodd" d="M25.1175 70.0976C25.4018 70.0976 25.6862 70.1213 25.9705 70.1213C25.6862 70.1213 25.4018 70.1213 25.1175 70.0976ZM48.0075 65.1534C46.0645 64.2739 44.1451 63.3469 42.2968 62.301C31.1125 66.128 18.1747 63.5846 9.3125 54.6709L24.691 70.0976L31.9181 77.3474L54.5001 100L69.5942 84.8587C74.4282 73.6155 60.9216 70.9295 48.0075 65.1534Z" fill="#AA6BE9"/>
<path fill-rule="evenodd" clip-rule="evenodd" d="M54.5001 54.6707C42.0836 67.1261 21.7527 67.1261 9.3125 54.6707L24.691 70.0973C66.3953 71.9752 78.2195 26.5271 54.5001 9.36523C66.9166 21.8207 66.9166 42.2152 54.5001 54.6707Z" fill="#AA6BE9"/>
</g>
<defs>
<clipPath id="clip0_899_7888">
<rect width="109" height="100" fill="white"/>
</clipPath>
</defs>
</svg>
