<svg width="157" height="154" viewBox="0 0 157 154" fill="none" xmlns="http://www.w3.org/2000/svg">
<ellipse opacity="0.35" cx="78.1159" cy="77" rx="78.1159" ry="77" fill="#F7F0FD"/>
<ellipse cx="77.4653" cy="77" rx="60.8695" ry="60" fill="#F7F0FD"/>
<g clip-path="url(#clip0_738_2322)">
<path fill-rule="evenodd" clip-rule="evenodd" d="M54.952 46.2232C67.2496 33.9256 87.1879 33.9256 99.4854 46.2232C110.506 57.2433 111.807 74.6668 102.546 87.2017L82.4999 114.336C79.8751 117.888 74.5624 117.888 71.9379 114.336L51.8913 87.2017C42.6305 74.6668 43.9319 57.2433 54.952 46.2232ZM66.4959 67.958C66.4959 62.036 71.2966 57.2352 77.2186 57.2352C83.1409 57.2352 87.9416 62.036 87.9416 67.958C87.9416 73.88 83.1409 78.6808 77.2186 78.6808C71.2966 78.6808 66.4959 73.88 66.4959 67.958Z" fill="#AA6BE9"/>
</g>
<defs>
<clipPath id="clip0_738_2322">
<rect width="80" height="80" fill="white" transform="translate(37.5957 37)"/>
</clipPath>
</defs>
</svg>
