<svg width="37" height="37" viewBox="0 0 37 37" fill="none" xmlns="http://www.w3.org/2000/svg">
<path d="M5.93507 21.3058C5.65757 21.0283 5.43403 20.6815 5.28757 20.2729C5.14111 19.8644 5.04861 19.4327 5.02548 18.9625C4.98694 18.1685 5.10257 17.4517 5.38007 16.7887C5.64986 16.1335 6.05069 15.5323 6.59028 14.9927C7.37652 14.2065 8.40173 13.5512 9.6659 13.0425C10.9301 12.5337 12.3253 12.156 13.8438 11.9171C15.3778 11.6781 16.9349 11.5548 18.5305 11.5471C20.1261 11.5548 21.6832 11.6781 23.2017 11.9171C24.7126 12.1638 26.1001 12.5338 27.3411 13.0348C28.5899 13.5435 29.6151 14.1988 30.4167 15.0004C30.9409 15.5246 31.3494 16.1181 31.6269 16.7656C31.9121 17.4208 32.0509 18.1454 32.0278 18.9394C32.0201 19.9183 31.7194 20.6969 31.149 21.2673C30.9332 21.4831 30.6711 21.6527 30.3859 21.7529C30.093 21.8608 29.7769 21.8994 29.4378 21.8377L25.1288 21.1054C24.7974 21.0515 24.5199 20.9744 24.2809 20.8742C24.0496 20.7817 23.8492 20.6583 23.7028 20.5119C23.5178 20.3269 23.3867 20.0879 23.3174 19.8027C23.2403 19.5252 23.2017 19.1937 23.2017 18.8237L23.1786 17.629C23.1786 17.4594 23.1169 17.3206 22.9936 17.1973C22.9319 17.1356 22.8703 17.0894 22.7932 17.0431C22.7084 17.0046 22.639 16.9815 22.5774 16.9506C22.1842 16.835 21.6138 16.7425 20.8738 16.6808C20.1261 16.6269 19.3476 16.5883 18.5382 16.5806C17.7134 16.5883 16.9349 16.6115 16.1794 16.6731C15.4394 16.7348 14.8767 16.835 14.4759 16.9583C14.4219 16.9815 14.3526 17.0046 14.2755 17.0354C14.1907 17.074 14.1213 17.1279 14.0519 17.1973C13.9209 17.3283 13.8669 17.4748 13.8669 17.6444L13.8592 18.8083C13.8592 19.1937 13.8207 19.5252 13.7359 19.795C13.6665 20.0802 13.5432 20.3115 13.3505 20.5042C13.204 20.6506 13.019 20.774 12.7801 20.8742C12.5411 20.9744 12.2636 21.0515 11.9399 21.1131L7.57694 21.8531C7.23778 21.9148 6.93715 21.8917 6.65965 21.7837C6.38986 21.6681 6.1509 21.5217 5.93507 21.3058Z" fill="white"/>
</svg>
