<svg width="96" height="95" viewBox="0 0 96 95" fill="none" xmlns="http://www.w3.org/2000/svg">
<ellipse cx="48" cy="47.194" rx="48" ry="47.194" fill="#76B5DA"/>
<path d="M86.8851 37.9345C87.3743 39.9277 87.7091 41.98 87.8764 44.0787L87.378 44.1184C87.4588 45.1329 87.5 46.1585 87.5 47.1936C87.5 48.2287 87.4588 49.2543 87.378 50.2688L87.8764 50.3085C87.7091 52.4072 87.3743 54.4595 86.8851 56.4527L86.3995 56.3335C85.9067 58.3416 85.255 60.2888 84.4584 62.1617L84.9185 62.3574C84.1016 64.2776 83.1344 66.1205 82.0312 67.8719L81.6081 67.6054C80.5136 69.3431 79.2834 70.9896 77.932 72.5308L78.308 72.8604C76.94 74.4206 75.4495 75.874 73.8512 77.2062L73.5311 76.8221C71.9605 78.1311 70.2845 79.3217 68.5173 80.3797L68.7741 80.8087C67.0025 81.8694 65.1403 82.7985 63.2018 83.5822L63.0144 83.1187C61.1298 83.8806 59.172 84.5034 57.1543 84.974L57.2679 85.4609C55.2708 85.9267 53.2158 86.2453 51.1154 86.4044L51.0776 85.9059C50.0621 85.9828 49.0357 86.0219 48 86.0219C46.9643 86.0219 45.9379 85.9828 44.9224 85.9059L44.8846 86.4044C42.7842 86.2453 40.7292 85.9268 38.7322 85.4609L38.8457 84.974C36.828 84.5034 34.8702 83.8806 32.9856 83.1187L32.7982 83.5822C30.8597 82.7985 28.9975 81.8694 27.2259 80.8087L27.4827 80.3797C25.7155 79.3217 24.0395 78.1311 22.4689 76.8221L22.1488 77.2062C20.5505 75.874 19.06 74.4206 17.692 72.8604L18.068 72.5308C16.7166 70.9896 15.4864 69.3431 14.3919 67.6054L13.9689 67.8719C12.8656 66.1205 11.8984 64.2776 11.0815 62.3574L11.5417 62.1617C10.745 60.2888 10.0933 58.3416 9.60046 56.3335L9.11487 56.4527C8.62567 54.4595 8.29087 52.4072 8.12363 50.3085L8.62205 50.2688C8.54119 49.2543 8.5 48.2287 8.5 47.1936C8.5 46.1585 8.54119 45.1329 8.62204 44.1184L8.12363 44.0787C8.29087 41.98 8.62567 39.9277 9.11487 37.9345L9.60045 38.0537C10.0933 36.0456 10.745 34.0984 11.5416 32.2255L11.0815 32.0298C11.8984 30.1096 12.8656 28.2667 13.9688 26.5153L14.3919 26.7817C15.4864 25.0441 16.7166 23.3976 18.068 21.8564L17.692 21.5268C19.06 19.9666 20.5505 18.5132 22.1488 17.181L22.4689 17.5651C24.0395 16.256 25.7155 15.0655 27.4827 14.0075L27.2259 13.5785C28.9975 12.5178 30.8597 11.5887 32.7982 10.805L32.9856 11.2685C34.8702 10.5066 36.828 9.88381 38.8457 9.41317L38.7321 8.92624C40.7292 8.46044 42.7842 8.14184 44.8846 7.98275L44.9224 8.48132C45.9379 8.40441 46.9643 8.36523 48 8.36523C49.0357 8.36523 50.0621 8.40441 51.0776 8.48132L51.1154 7.98275C53.2158 8.14184 55.2708 8.46044 57.2678 8.92624L57.1543 9.41317C59.172 9.8838 61.1298 10.5066 63.0144 11.2685L63.2018 10.8049C65.1403 11.5887 67.0025 12.5178 68.7741 13.5785L68.5173 14.0075C70.2845 15.0655 71.9605 16.256 73.5311 17.5651L73.8512 17.181C75.4495 18.5132 76.94 19.9666 78.308 21.5267L77.932 21.8564C79.2834 23.3976 80.5135 25.0441 81.6081 26.7817L82.0311 26.5152C83.1344 28.2667 84.1016 30.1096 84.9184 32.0298L84.4584 32.2255C85.255 34.0984 85.9067 36.0456 86.3995 38.0537L86.8851 37.9345Z" stroke="white" stroke-dasharray="6 6"/>
<path d="M41.6641 42.547H40.2578V31.4629H41.6641V42.547Z" fill="white"/>
<path d="M44.0781 32.6305H45.4375V34.5585H47.0156V35.6569H45.4375V40.4039C45.4375 40.7675 45.5182 41.0364 45.6797 41.2105C45.8411 41.3795 46.0964 41.464 46.4453 41.464C46.6641 41.464 46.8516 41.4512 47.0078 41.4256V42.547C46.8307 42.588 46.5443 42.6085 46.1484 42.6085C45.4036 42.6085 44.8724 42.4446 44.5547 42.1169C44.237 41.7891 44.0781 41.2412 44.0781 40.4731V35.6569H42.8672V34.5585H44.0781V32.6305Z" fill="white"/>
<path d="M49.4844 35.3727H48.3516L49.1094 31.4629H50.5547L49.4844 35.3727Z" fill="white"/>
<path d="M51.125 36.763C51.125 36.0768 51.4062 35.5161 51.9688 35.0808C52.5365 34.6404 53.2656 34.4202 54.1562 34.4202C54.9948 34.4202 55.6927 34.6404 56.25 35.0808C56.8073 35.5212 57.1016 36.0794 57.1328 36.7553H55.8359C55.7891 36.3661 55.612 36.0614 55.3047 35.8412C55.0026 35.621 54.6042 35.5109 54.1094 35.5109C53.6146 35.5109 53.2161 35.621 52.9141 35.8412C52.612 36.0563 52.4609 36.3405 52.4609 36.6939C52.4609 37.2367 52.9115 37.6207 53.8125 37.8461L55.0703 38.1456C55.888 38.3505 56.4635 38.6168 56.7969 38.9445C57.1354 39.2671 57.3047 39.7229 57.3047 40.3118C57.3047 41.0082 57.0026 41.5792 56.3984 42.0247C55.7943 42.4651 55.0182 42.6853 54.0703 42.6853C53.1849 42.6853 52.4531 42.4702 51.875 42.0401C51.3021 41.6048 50.9792 41.0313 50.9062 40.3195H52.2656C52.4167 41.1695 53.0469 41.5946 54.1562 41.5946C54.7031 41.5946 55.1354 41.4896 55.4531 41.2796C55.776 41.0645 55.9375 40.7752 55.9375 40.4116C55.9375 40.1249 55.8411 39.897 55.6484 39.728C55.4609 39.559 55.1406 39.4156 54.6875 39.2978L53.2578 38.9368C51.8359 38.5784 51.125 37.8537 51.125 36.763Z" fill="white"/>
<path d="M28.3203 62.2111V54.2225H29.6016V55.4976H29.6328C29.8307 55.0623 30.1302 54.7193 30.5312 54.4683C30.9323 54.2123 31.401 54.0843 31.9375 54.0843C32.4896 54.0843 32.9635 54.2174 33.3594 54.4837C33.7552 54.7449 34.0417 55.1187 34.2188 55.6052H34.25C34.474 55.1289 34.8099 54.7577 35.2578 54.4914C35.7109 54.22 36.224 54.0843 36.7969 54.0843C37.599 54.0843 38.2396 54.3224 38.7188 54.7986C39.2031 55.2697 39.4453 55.9022 39.4453 56.6959V62.2111H38.0859V57.0032C38.0859 56.4552 37.9375 56.0302 37.6406 55.7281C37.349 55.4208 36.9349 55.2672 36.3984 55.2672C35.862 55.2672 35.4219 55.4439 35.0781 55.7972C34.7344 56.1454 34.5625 56.5909 34.5625 57.1337V62.2111H33.2031V56.8572C33.2031 56.3759 33.0521 55.9918 32.75 55.705C32.4479 55.4131 32.0443 55.2672 31.5391 55.2672C31.0026 55.2672 30.5573 55.4515 30.2031 55.8202C29.8542 56.1889 29.6797 56.6498 29.6797 57.2029V62.2111H28.3203Z" fill="white"/>
<path d="M43.8594 61.2125C44.5 61.2125 45.0365 61.0179 45.4688 60.6287C45.9062 60.2344 46.125 59.7505 46.125 59.177V58.5241L43.9531 58.6546C43.4062 58.6905 42.9818 58.8211 42.6797 59.0464C42.3828 59.2717 42.2344 59.5738 42.2344 59.9528C42.2344 60.3317 42.3828 60.6364 42.6797 60.8669C42.9766 61.0973 43.3698 61.2125 43.8594 61.2125ZM43.5547 62.3494C42.7474 62.3494 42.0938 62.1292 41.5938 61.6888C41.099 61.2484 40.8516 60.6697 40.8516 59.9528C40.8516 59.2666 41.1068 58.7187 41.6172 58.309C42.1328 57.8993 42.8594 57.6689 43.7969 57.6177L46.125 57.4871V56.8188C46.125 56.3323 45.9688 55.9508 45.6562 55.6743C45.3438 55.3978 44.9062 55.2595 44.3438 55.2595C43.8281 55.2595 43.4089 55.3722 43.0859 55.5975C42.763 55.8177 42.5573 56.1275 42.4688 56.5269H41.1562C41.2031 55.8151 41.5156 55.2313 42.0938 54.7756C42.6771 54.3147 43.4375 54.0843 44.375 54.0843C45.3281 54.0843 46.0833 54.3198 46.6406 54.7909C47.2031 55.2621 47.4844 55.8945 47.4844 56.6882V62.2111H46.1953V60.8361H46.1641C45.9193 61.2919 45.5599 61.658 45.0859 61.9346C44.612 62.2111 44.1016 62.3494 43.5547 62.3494Z" fill="white"/>
<path d="M49.6484 52.2945H51.0078V54.2225H52.5859V55.321H51.0078V60.068C51.0078 60.4316 51.0885 60.7004 51.25 60.8745C51.4115 61.0435 51.6667 61.128 52.0156 61.128C52.2344 61.128 52.4219 61.1152 52.5781 61.0896V62.2111C52.401 62.2521 52.1146 62.2725 51.7188 62.2725C50.974 62.2725 50.4427 62.1087 50.125 61.7809C49.8073 61.4532 49.6484 60.9053 49.6484 60.1371V55.321H48.4375V54.2225H49.6484V52.2945Z" fill="white"/>
<path d="M60.5547 56.8419H59.2266C59.1224 56.381 58.8906 56.002 58.5312 55.705C58.1771 55.408 57.7161 55.2595 57.1484 55.2595C56.4401 55.2595 55.8698 55.5283 55.4375 56.066C55.0052 56.5986 54.7891 57.3155 54.7891 58.2168C54.7891 59.1334 55.0052 59.8555 55.4375 60.3829C55.875 60.9104 56.4505 61.1741 57.1641 61.1741C57.7109 61.1741 58.1615 61.041 58.5156 60.7747C58.875 60.5033 59.1146 60.1243 59.2344 59.6379H60.5703C60.4661 60.4367 60.099 61.0896 59.4688 61.5966C58.8438 62.0984 58.0729 62.3494 57.1562 62.3494C56.0208 62.3494 55.112 61.9807 54.4297 61.2433C53.7474 60.5007 53.4062 59.4919 53.4062 58.2168C53.4062 56.9622 53.7474 55.9611 54.4297 55.2134C55.112 54.4606 56.0156 54.0843 57.1406 54.0843C58.1094 54.0843 58.8958 54.3531 59.5 54.8908C60.1094 55.4285 60.4609 56.0788 60.5547 56.8419Z" fill="white"/>
<path d="M61.8906 62.2111V51.127H63.25V55.4976H63.2812C63.5104 55.047 63.8438 54.6988 64.2812 54.453C64.724 54.2072 65.25 54.0843 65.8594 54.0843C66.7448 54.0843 67.4427 54.3531 67.9531 54.8908C68.4635 55.4285 68.7188 56.148 68.7188 57.0493V62.2111H67.3594V57.2951C67.3594 56.6498 67.1953 56.1505 66.8672 55.7972C66.5443 55.4439 66.0677 55.2672 65.4375 55.2672C64.7656 55.2672 64.2318 55.4746 63.8359 55.8894C63.4453 56.3042 63.25 56.8598 63.25 57.5562V62.2111H61.8906Z" fill="white"/>
</svg>
