<svg width="157" height="154" viewBox="0 0 157 154" fill="none" xmlns="http://www.w3.org/2000/svg">
<ellipse opacity="0.35" cx="78.1159" cy="77" rx="78.1159" ry="77" fill="#F7F0FD"/>
<ellipse cx="78.1137" cy="77" rx="60.8695" ry="60" fill="#F7F0FD"/>
<path fill-rule="evenodd" clip-rule="evenodd" d="M42.5957 52C42.5957 47.8579 45.9536 44.5 50.0957 44.5H105.096C109.238 44.5 112.596 47.8579 112.596 52V92C112.596 96.1423 109.238 99.5 105.096 99.5H66.202C64.6195 102.939 55.7263 112.338 51.1339 109.028C50.482 108.558 50.0957 107.804 50.0957 107V99.5C45.9536 99.5 42.5957 96.1423 42.5957 92V52ZM62.5957 67C59.8343 67 57.5957 69.2385 57.5957 72C57.5957 74.7615 59.8343 77 62.5957 77C65.3572 77 67.5957 74.7615 67.5957 72C67.5957 69.2385 65.3572 67 62.5957 67ZM77.5957 67C74.8342 67 72.5957 69.2385 72.5957 72C72.5957 74.7615 74.8342 77 77.5957 77C80.3572 77 82.5957 74.7615 82.5957 72C82.5957 69.2385 80.3572 67 77.5957 67ZM87.5957 72C87.5957 69.2385 89.8342 67 92.5957 67C95.3572 67 97.5957 69.2385 97.5957 72C97.5957 74.7615 95.3572 77 92.5957 77C89.8342 77 87.5957 74.7615 87.5957 72Z" fill="#AA6BE9"/>
</svg>
