<svg width="184" height="40" viewBox="0 0 184 40" fill="none" xmlns="http://www.w3.org/2000/svg">
<path d="M15.2886 11.6951L14.1173 8.40258H9.48032L8.30896 11.6951H6.78215L11.0798 0.19133H12.5178L16.8155 11.6951H15.2886ZM11.7746 1.93722L9.90847 7.18285H13.6891L11.823 1.93722H11.7746Z" fill="black"/>
<path d="M18.003 11.6951V0.19133H19.4086V11.6951H18.003Z" fill="black"/>
<path d="M24.6757 4.46437C24.024 4.46437 23.4828 4.68759 23.0519 5.13402C22.6265 5.57515 22.3922 6.14382 22.3491 6.84005H26.9134C26.8972 6.13851 26.6845 5.56717 26.2752 5.12605C25.8659 4.68493 25.3327 4.46437 24.6757 4.46437ZM26.8811 9.31937H28.2625C28.1386 10.0528 27.7508 10.656 27.0992 11.129C26.4529 11.602 25.6747 11.8385 24.7645 11.8385C23.5636 11.8385 22.6184 11.4559 21.929 10.6906C21.2397 9.92525 20.895 8.88888 20.895 7.58146C20.895 6.28466 21.2397 5.24032 21.929 4.44842C22.6238 3.65653 23.5474 3.26058 24.6999 3.26058C25.8309 3.26058 26.7249 3.63527 27.3819 4.38465C28.039 5.13402 28.3675 6.13851 28.3675 7.3981V7.92426H22.341V8.00398C22.341 8.80118 22.5618 9.43895 23.0035 9.91728C23.4451 10.3956 24.0429 10.6348 24.7969 10.6348C25.3246 10.6348 25.7743 10.5152 26.1459 10.276C26.5175 10.0369 26.7626 9.71797 26.8811 9.31937Z" fill="black"/>
<path d="M32.6005 8.53811H32.5682L30.5406 11.6951H28.9814L31.8412 7.54957L29.0299 3.40408H30.5971L32.6167 6.5132H32.649L34.6444 3.40408H36.2116L33.3761 7.49376L36.1712 11.6951H34.612L32.6005 8.53811Z" fill="black"/>
<path d="M45.4128 11.6951H41.0101V0.19133H45.429C46.4253 0.19133 47.2304 0.454409 47.8444 0.980567C48.4637 1.50672 48.7734 2.2003 48.7734 3.06128C48.7734 3.66185 48.5768 4.2066 48.1837 4.69556C47.7959 5.1792 47.322 5.47151 46.7619 5.57249V5.63627C47.5536 5.73725 48.1837 6.04284 48.6522 6.55306C49.1261 7.06327 49.3631 7.70104 49.3631 8.46636C49.3631 9.48147 49.013 10.2734 48.3129 10.842C47.6182 11.4107 46.6515 11.6951 45.4128 11.6951ZM42.4642 1.45889V5.14997H44.6454C45.507 5.14997 46.1641 4.98521 46.6165 4.6557C47.0742 4.32619 47.3031 3.85052 47.3031 3.2287C47.3031 2.66002 47.1119 2.22421 46.7296 1.92127C46.3472 1.61302 45.8032 1.45889 45.0977 1.45889H42.4642ZM42.4642 10.4275H45.1947C46.0725 10.4275 46.7376 10.2548 47.19 9.9093C47.6424 9.56385 47.8686 9.05895 47.8686 8.39461C47.8686 7.0553 46.9315 6.38564 45.0573 6.38564H42.4642V10.4275Z" fill="black"/>
<path d="M53.5638 10.6587C54.2263 10.6587 54.781 10.4567 55.228 10.0528C55.6804 9.64357 55.9066 9.14133 55.9066 8.54608V7.86845L53.6608 8.00398C53.0953 8.04118 52.6564 8.1767 52.344 8.41055C52.037 8.6444 51.8835 8.95797 51.8835 9.35126C51.8835 9.74455 52.037 10.0608 52.344 10.2999C52.651 10.5391 53.0576 10.6587 53.5638 10.6587ZM53.2488 11.8385C52.414 11.8385 51.7381 11.61 51.2211 11.1529C50.7095 10.6959 50.4537 10.0953 50.4537 9.35126C50.4537 8.63909 50.7176 8.07041 51.2454 7.64523C51.7785 7.22005 52.5298 6.98089 53.4992 6.92774L55.9066 6.79222V6.09865C55.9066 5.59375 55.745 5.1978 55.4219 4.91081C55.0987 4.62381 54.6463 4.48031 54.0647 4.48031C53.5315 4.48031 53.098 4.59724 52.7641 4.83109C52.4302 5.05962 52.2175 5.38116 52.1259 5.79571H50.7687C50.8172 5.05696 51.1403 4.45108 51.7381 3.97807C52.3413 3.49975 53.1276 3.26058 54.097 3.26058C55.0826 3.26058 55.8635 3.50506 56.4397 3.99402C57.0214 4.48297 57.3122 5.13934 57.3122 5.96312V11.6951H55.9793V10.268H55.947C55.6938 10.7411 55.3222 11.1211 54.8321 11.4081C54.3421 11.6951 53.8143 11.8385 53.2488 11.8385Z" fill="black"/>
<path d="M66.0772 6.12256H64.7039C64.5962 5.64424 64.3565 5.25095 63.9849 4.94269C63.6187 4.63444 63.1421 4.48031 62.555 4.48031C61.8226 4.48031 61.2329 4.75934 60.7859 5.31738C60.3389 5.87011 60.1154 6.61418 60.1154 7.54957C60.1154 8.5009 60.3389 9.25028 60.7859 9.7977C61.2383 10.3451 61.8334 10.6188 62.5712 10.6188C63.1367 10.6188 63.6025 10.4806 63.9688 10.2043C64.3404 9.92259 64.5881 9.5293 64.712 9.0244H66.0934C65.9856 9.8535 65.606 10.5311 64.9543 11.0573C64.308 11.5781 63.511 11.8385 62.5631 11.8385C61.3891 11.8385 60.4493 11.4559 59.7438 10.6906C59.0383 9.91993 58.6855 8.87293 58.6855 7.54957C58.6855 6.24746 59.0383 5.20843 59.7438 4.43248C60.4493 3.65122 61.3837 3.26058 62.547 3.26058C63.5487 3.26058 64.3619 3.53961 64.9866 4.09765C65.6167 4.6557 65.9803 5.33067 66.0772 6.12256Z" fill="black"/>
<path d="M68.8642 7.08719L72.5803 3.40408H74.2848L70.6415 6.98355L74.3979 11.6951H72.7661L69.6478 7.83656L68.8642 8.56999V11.6951H67.4586V0.19133H68.8642V7.08719Z" fill="black"/>
<path d="M78.3805 4.46437C77.7289 4.46437 77.1876 4.68759 76.7568 5.13402C76.3313 5.57515 76.097 6.14382 76.054 6.84005H80.6182C80.6021 6.13851 80.3893 5.56717 79.98 5.12605C79.5707 4.68493 79.0376 4.46437 78.3805 4.46437ZM80.5859 9.31937H81.9673C81.8434 10.0528 81.4557 10.656 80.804 11.129C80.1578 11.602 79.3795 11.8385 78.4694 11.8385C77.2684 11.8385 76.3232 11.4559 75.6339 10.6906C74.9445 9.92525 74.5999 8.88888 74.5999 7.58146C74.5999 6.28466 74.9445 5.24032 75.6339 4.44842C76.3286 3.65653 77.2522 3.26058 78.4048 3.26058C79.5357 3.26058 80.4297 3.63527 81.0868 4.38465C81.7438 5.13402 82.0723 6.13851 82.0723 7.3981V7.92426H76.0459V8.00398C76.0459 8.80118 76.2667 9.43895 76.7083 9.91728C77.1499 10.3956 77.7477 10.6348 78.5017 10.6348C79.0295 10.6348 79.4792 10.5152 79.8508 10.276C80.2224 10.0369 80.4674 9.71797 80.5859 9.31937Z" fill="black"/>
<path d="M83.4941 11.6951V3.40408H84.819V4.75934H84.8513C84.9913 4.29696 85.2417 3.9329 85.6026 3.66716C85.9688 3.39611 86.3969 3.26058 86.887 3.26058C87.0001 3.26058 87.1886 3.27919 87.4525 3.31639V4.66367C87.3017 4.61052 87.0513 4.58395 86.7012 4.58395C86.1573 4.58395 85.721 4.76199 85.3925 5.11808C85.064 5.47417 84.8997 5.94452 84.8997 6.52914V11.6951H83.4941Z" fill="black"/>
<path d="M88.7531 13.983H87.5818L88.3654 9.92525H89.8599L88.7531 13.983Z" fill="black"/>
<path d="M94.5372 3.50772C94.5372 2.50324 94.9034 1.66882 95.6359 1.00448C96.3683 0.334828 97.2838 0 98.3825 0C99.4219 0 100.302 0.305597 101.024 0.91679C101.746 1.52798 102.107 2.2747 102.107 3.15695C102.107 3.79471 101.929 4.40856 101.573 4.9985C101.218 5.58843 100.55 6.38298 99.57 7.38215L96.6214 10.3876V10.4195H102.3V11.6951H94.6099V10.7065L98.7137 6.44145C99.4946 5.62829 100.012 5.01179 100.265 4.59192C100.523 4.17206 100.653 3.72296 100.653 3.24464C100.653 2.69191 100.426 2.22155 99.9739 1.83358C99.5269 1.44561 98.983 1.25162 98.3421 1.25162C97.6581 1.25162 97.0873 1.46686 96.6295 1.89736C96.1717 2.32785 95.9428 2.86464 95.9428 3.50772V3.51569H94.5372V3.50772Z" fill="black"/>
<path d="M107.988 11.8864C106.873 11.8864 105.941 11.5755 105.193 10.9536C104.449 10.3318 104.048 9.53196 103.989 8.55405H105.419C105.483 9.16524 105.755 9.66483 106.235 10.0528C106.714 10.4355 107.304 10.6268 108.004 10.6268C108.795 10.6268 109.439 10.3823 109.935 9.89336C110.435 9.40441 110.686 8.77195 110.686 7.996C110.686 7.22005 110.435 6.58494 109.935 6.09067C109.439 5.59109 108.804 5.3413 108.028 5.3413C107.484 5.3413 106.991 5.45557 106.55 5.6841C106.108 5.91263 105.769 6.22886 105.532 6.63278H104.167L104.805 0.19133H111.478V1.46686H106L105.645 5.21375H105.677C105.941 4.86829 106.302 4.59724 106.76 4.40059C107.223 4.20395 107.732 4.10563 108.287 4.10563C109.407 4.10563 110.328 4.46968 111.049 5.1978C111.776 5.9206 112.14 6.84005 112.14 7.95614C112.14 9.10944 111.752 10.0528 110.977 10.7862C110.201 11.5197 109.205 11.8864 107.988 11.8864Z" fill="black"/>
<path d="M27.1134 34.8824H25.963V25.6795H27.094L32.1995 32.9054H32.2577V25.6795H33.408V34.8824H32.2771L27.1716 27.6821H27.1134V34.8824Z" fill="black"/>
<path d="M37.738 29.0979C37.2167 29.0979 36.7837 29.2765 36.439 29.6336C36.0987 29.9865 35.9112 30.4415 35.8768 30.9984H39.5282C39.5153 30.4372 39.3451 29.9801 39.0176 29.6272C38.6902 29.2743 38.2637 29.0979 37.738 29.0979ZM39.5023 32.9819H40.6075C40.5084 33.5686 40.1982 34.0512 39.6768 34.4296C39.1598 34.808 38.5372 34.9972 37.8091 34.9972C36.8483 34.9972 36.0922 34.6911 35.5407 34.0789C34.9892 33.4666 34.7135 32.6375 34.7135 31.5916C34.7135 30.5541 34.9892 29.7187 35.5407 29.0851C36.0965 28.4516 36.8354 28.1349 37.7574 28.1349C38.6622 28.1349 39.3774 28.4346 39.903 29.0341C40.4287 29.6336 40.6915 30.4372 40.6915 31.4449V31.8658H35.8703V31.9296C35.8703 32.5674 36.047 33.0776 36.4003 33.4602C36.7535 33.8429 37.2318 34.0342 37.835 34.0342C38.2572 34.0342 38.617 33.9386 38.9142 33.7472C39.2115 33.5559 39.4076 33.3008 39.5023 32.9819Z" fill="black"/>
<path d="M50.379 28.2497L48.5048 34.8824H47.361L45.8422 29.7484H45.8164L44.3041 34.8824H43.1602L41.2796 28.2497H42.3976L43.7419 33.6452H43.7677L45.2864 28.2497H46.3722L47.8974 33.6452H47.9232L49.2674 28.2497H50.379Z" fill="black"/>
<path d="M54.5733 37.3634C54.3751 37.3634 54.2135 37.3506 54.0886 37.3251V36.394C54.192 36.4152 54.3385 36.4258 54.5281 36.4258C54.8426 36.4258 55.0946 36.3429 55.2842 36.1771C55.4738 36.0155 55.6332 35.7413 55.7624 35.3544L55.9175 34.8888L53.4359 28.2497H54.6379L56.4992 33.7727H56.5186L58.3798 28.2497H59.5625L56.9193 35.348C56.6306 36.1218 56.3182 36.6512 55.9822 36.9361C55.6504 37.2209 55.1808 37.3634 54.5733 37.3634Z" fill="black"/>
<path d="M63.0459 34.9972C62.1066 34.9972 61.3527 34.689 60.7839 34.0725C60.2152 33.4517 59.9309 32.6162 59.9309 31.5661C59.9309 30.5159 60.2152 29.6825 60.7839 29.066C61.3527 28.4453 62.1066 28.1349 63.0459 28.1349C63.9808 28.1349 64.7326 28.4453 65.3013 29.066C65.8701 29.6825 66.1544 30.5159 66.1544 31.5661C66.1544 32.612 65.8701 33.4453 65.3013 34.0661C64.7326 34.6869 63.9808 34.9972 63.0459 34.9972ZM61.6047 33.3709C61.9623 33.8046 62.4427 34.0215 63.0459 34.0215C63.6491 34.0215 64.1273 33.8067 64.4806 33.3773C64.8339 32.9436 65.0105 32.3399 65.0105 31.5661C65.0105 30.7922 64.8339 30.1906 64.4806 29.7612C64.1273 29.3275 63.6491 29.1107 63.0459 29.1107C62.4427 29.1107 61.9623 29.3275 61.6047 29.7612C61.2514 30.1949 61.0748 30.7965 61.0748 31.5661C61.0748 32.3356 61.2514 32.9373 61.6047 33.3709Z" fill="black"/>
<path d="M67.2918 34.8824V28.2497H68.3517V29.3339H68.3776C68.4896 28.964 68.6899 28.6727 68.9786 28.4601C69.2716 28.2433 69.6141 28.1349 70.0062 28.1349C70.0967 28.1349 70.2474 28.1498 70.4586 28.1795V29.2573C70.3379 29.2148 70.1376 29.1936 69.8575 29.1936C69.4224 29.1936 69.0734 29.336 68.8106 29.6209C68.5478 29.9057 68.4164 30.282 68.4164 30.7497V34.8824H67.2918Z" fill="black"/>
<path d="M72.5589 31.1962L75.5318 28.2497H76.8954L73.9807 31.1132L76.9859 34.8824H75.6804L73.1858 31.7957L72.5589 32.3824V34.8824H71.4344V25.6795H72.5589V31.1962Z" fill="black"/>
<path d="M126.825 28.3331C126.825 27.5295 127.118 26.862 127.704 26.3305C128.29 25.7948 129.022 25.5269 129.901 25.5269C130.733 25.5269 131.437 25.7714 132.015 26.2604C132.592 26.7493 132.881 27.3467 132.881 28.0525C132.881 28.5627 132.738 29.0538 132.454 29.5257C132.17 29.9977 131.635 30.6333 130.851 31.4326L128.492 33.837V33.8625H133.036V34.883H126.883V34.0921L130.166 30.6801C130.791 30.0296 131.205 29.5364 131.407 29.2005C131.614 28.8646 131.717 28.5053 131.717 28.1226C131.717 27.6805 131.536 27.3042 131.174 26.9938C130.817 26.6834 130.382 26.5282 129.869 26.5282C129.322 26.5282 128.865 26.7004 128.499 27.0448C128.133 27.3892 127.95 27.8186 127.95 28.3331V28.3395H126.825V28.3331Z" fill="#BDBDBD"/>
<path d="M137.068 34.883V28.2502H138.128V29.3089H138.154C138.318 28.9475 138.566 28.6626 138.897 28.4543C139.229 28.2417 139.617 28.1354 140.061 28.1354C140.517 28.1354 140.909 28.2459 141.237 28.467C141.564 28.6839 141.801 28.9943 141.948 29.3982H141.974C142.159 29.0028 142.437 28.6945 142.807 28.4734C143.182 28.2481 143.606 28.1354 144.08 28.1354C144.744 28.1354 145.274 28.3331 145.67 28.7285C146.071 29.1197 146.271 29.6448 146.271 30.3038V34.883H145.147V30.5589C145.147 30.104 145.024 29.7511 144.778 29.5002C144.537 29.2451 144.195 29.1176 143.751 29.1176C143.307 29.1176 142.943 29.2642 142.659 29.5576C142.374 29.8467 142.232 30.2166 142.232 30.6673V34.883H141.108V30.4377C141.108 30.0381 140.983 29.7192 140.733 29.4811C140.483 29.2387 140.149 29.1176 139.731 29.1176C139.287 29.1176 138.919 29.2706 138.626 29.5767C138.337 29.8829 138.193 30.2655 138.193 30.7247V34.883H137.068Z" fill="#BDBDBD"/>
<path d="M147.764 34.883V28.2502H148.889V34.883H147.764ZM148.326 27.1341C148.137 27.1341 147.973 27.0661 147.835 26.93C147.697 26.794 147.628 26.6324 147.628 26.4453C147.628 26.254 147.697 26.0924 147.835 25.9606C147.973 25.8246 148.137 25.7565 148.326 25.7565C148.52 25.7565 148.686 25.8246 148.824 25.9606C148.962 26.0924 149.031 26.254 149.031 26.4453C149.031 26.6324 148.962 26.794 148.824 26.93C148.686 27.0661 148.52 27.1341 148.326 27.1341Z" fill="#BDBDBD"/>
<path d="M150.465 34.883V25.68H151.59V34.883H150.465Z" fill="#BDBDBD"/>
<path d="M158.04 34.0539C158.57 34.0539 159.013 33.8923 159.371 33.5692C159.733 33.2418 159.914 32.84 159.914 32.3638V31.8217L158.117 31.9301C157.665 31.9599 157.314 32.0683 157.064 32.2554C156.818 32.4424 156.695 32.6933 156.695 33.0079C156.695 33.3226 156.818 33.5755 157.064 33.7669C157.309 33.9582 157.635 34.0539 158.04 34.0539ZM157.788 34.9978C157.12 34.9978 156.579 34.8149 156.166 34.4493C155.756 34.0836 155.552 33.6032 155.552 33.0079C155.552 32.4382 155.763 31.9833 156.185 31.6431C156.611 31.303 157.213 31.1116 157.988 31.0691L159.914 30.9607V30.4058C159.914 30.0019 159.785 29.6852 159.526 29.4556C159.268 29.226 158.906 29.1112 158.44 29.1112C158.014 29.1112 157.667 29.2047 157.4 29.3918C157.133 29.5746 156.963 29.8319 156.889 30.1635H155.804C155.842 29.5725 156.101 29.0878 156.579 28.7094C157.062 28.3267 157.691 28.1354 158.466 28.1354C159.255 28.1354 159.879 28.331 160.34 28.7221C160.806 29.1133 161.038 29.6384 161.038 30.2974V34.883H159.972V33.7414H159.946C159.744 34.1198 159.446 34.4238 159.054 34.6534C158.662 34.883 158.24 34.9978 157.788 34.9978Z" fill="#BDBDBD"/>
<path d="M171.017 28.2502L169.143 34.883H167.999L166.48 29.7489H166.454L164.942 34.883H163.798L161.917 28.2502H163.035L164.38 33.6457H164.405L165.924 28.2502H167.01L168.535 33.6457H168.561L169.905 28.2502H171.017Z" fill="#BDBDBD"/>
<path d="M174.028 34.0539C174.558 34.0539 175.002 33.8923 175.36 33.5692C175.722 33.2418 175.903 32.84 175.903 32.3638V31.8217L174.106 31.9301C173.654 31.9599 173.302 32.0683 173.053 32.2554C172.807 32.4424 172.684 32.6933 172.684 33.0079C172.684 33.3226 172.807 33.5755 173.053 33.7669C173.298 33.9582 173.623 34.0539 174.028 34.0539ZM173.776 34.9978C173.109 34.9978 172.568 34.8149 172.154 34.4493C171.745 34.0836 171.54 33.6032 171.54 33.0079C171.54 32.4382 171.751 31.9833 172.174 31.6431C172.6 31.303 173.201 31.1116 173.977 31.0691L175.903 30.9607V30.4058C175.903 30.0019 175.773 29.6852 175.515 29.4556C175.256 29.226 174.894 29.1112 174.429 29.1112C174.003 29.1112 173.656 29.2047 173.389 29.3918C173.121 29.5746 172.951 29.8319 172.878 30.1635H171.792C171.831 29.5725 172.09 29.0878 172.568 28.7094C173.05 28.3267 173.679 28.1354 174.455 28.1354C175.243 28.1354 175.868 28.331 176.329 28.7221C176.794 29.1133 177.027 29.6384 177.027 30.2974V34.883H175.961V33.7414H175.935C175.732 34.1198 175.435 34.4238 175.043 34.6534C174.651 34.883 174.229 34.9978 173.776 34.9978Z" fill="#BDBDBD"/>
<path d="M179.011 37.3639C178.813 37.3639 178.651 37.3511 178.526 37.3256V36.3945C178.63 36.4157 178.776 36.4264 178.966 36.4264C179.28 36.4264 179.532 36.3435 179.722 36.1776C179.912 36.0161 180.071 35.7418 180.2 35.3549L180.355 34.8893L177.874 28.2502H179.076L180.937 33.7733H180.956L182.818 28.2502H184L181.357 35.3485C181.068 36.1224 180.756 36.6517 180.42 36.9366C180.088 37.2214 179.619 37.3639 179.011 37.3639Z" fill="#BDBDBD"/>
<g clip-path="url(#clip0_679_1766)">
<path d="M9.32382 20.9801C7.46999 20.9825 5.6928 21.7103 4.38195 23.0039C3.0711 24.2975 2.33358 26.0514 2.33112 27.8808C2.33112 32.8349 8.84599 39.0398 9.12278 39.3015C9.17662 39.3531 9.24874 39.382 9.32382 39.382C9.3989 39.382 9.47102 39.3531 9.52486 39.3015C9.80165 39.0398 16.3165 32.8349 16.3165 27.8808C16.3141 26.0514 15.5765 24.2975 14.2657 23.0039C12.9548 21.7103 11.1776 20.9825 9.32382 20.9801ZM9.32382 31.0436C8.68993 31.0436 8.07028 30.8581 7.54322 30.5106C7.01617 30.1631 6.60538 29.6691 6.3628 29.0912C6.12022 28.5132 6.05675 27.8773 6.18042 27.2638C6.30408 26.6502 6.60933 26.0867 7.05755 25.6443C7.50578 25.202 8.07685 24.9008 8.69856 24.7787C9.32026 24.6567 9.96468 24.7193 10.5503 24.9587C11.136 25.1981 11.6365 25.6035 11.9887 26.1236C12.3408 26.6437 12.5288 27.2552 12.5288 27.8808C12.5283 28.7195 12.1905 29.5237 11.5895 30.1167C10.9886 30.7097 10.1737 31.0431 9.32382 31.0436Z" fill="black"/>
</g>
<defs>
<clipPath id="clip0_679_1766">
<rect width="18.6232" height="18.3783" fill="white" transform="translate(0 20.9801) scale(1.00129)"/>
</clipPath>
</defs>
</svg>
